<?xml version="1.0" encoding="utf-8"?>
<!-- Generator: Adobe Illustrator 18.1.0, SVG Export Plug-In . SVG Version: 6.00 Build 0)  -->
<svg version="1.1" id="圖層_1" xmlns="http://www.w3.org/2000/svg" xmlns:xlink="http://www.w3.org/1999/xlink" x="0px" y="0px"
	 viewBox="456 -871 1871 2303" enable-background="new 456 -871 1871 2303" xml:space="preserve">
<g transform="translate(0.000000,2303.000000) scale(0.100000,-0.100000)">
	<path d="M12100,31725c0-12-18-15-100-15s-100-3-100-15s-14-15-70-15s-70-3-70-15s-15-15-75-15s-75-3-75-15s-13-15-55-15
		c-30,0-55-4-55-10s-27-10-60-10c-47,0-60-3-60-15s-13-15-55-15s-55-3-55-15c0-11-12-15-45-15s-45-4-45-15c0-12-13-15-60-15
		s-60-3-60-15c0-11-11-15-40-15s-40-4-40-15s-12-15-45-15s-45-4-45-15s-11-15-40-15s-40-4-40-15c0-10-10-15-30-15c-16,0-30-4-30-10
		c0-5-20-10-45-10c-33,0-45-4-45-15c0-10-10-15-30-15s-30-5-30-15c0-11-11-15-40-15s-40-4-40-15c0-10-10-15-30-15s-30-5-30-15
		s-10-15-30-15s-30-5-30-15c0-11-11-15-40-15s-40-4-40-15c0-10-10-15-30-15s-30-5-30-15s-10-15-30-15c-16,0-30-4-30-10
		c0-5-13-10-30-10c-20,0-30-5-30-15c0-9-9-15-25-15s-25-6-25-15c0-8-7-15-15-15s-15-7-15-15c0-10-10-15-30-15s-30-5-30-15
		s-10-15-30-15s-30-5-30-15s-10-15-30-15s-30-5-30-15c0-8-4-15-10-15c-5,0-10-7-10-15c0-10-10-15-30-15c-16,0-30-4-30-10
		c0-5-13-10-30-10c-20,0-30-5-30-15c0-8-7-15-15-15s-15-7-15-15c0-10-10-15-30-15s-30-5-30-15c0-8-4-15-10-15c-5,0-10-7-10-15
		c0-10-10-15-30-15s-30-5-30-15c0-8-7-15-15-15s-15-7-15-15s-7-15-15-15s-15-7-15-15c0-10-10-15-30-15c-16,0-30-4-30-10
		c0-5-7-10-15-10s-15-7-15-15s-4-15-10-15c-5,0-10-7-10-15c0-10-10-15-30-15s-30-5-30-15c0-8-7-15-15-15s-15-7-15-15s-7-15-15-15
		s-15-7-15-15s-7-15-15-15s-15-7-15-15c0-10-10-15-30-15s-30-5-30-15c0-8-4-15-10-15c-5,0-10-7-10-15s-7-15-15-15s-15-4-15-10
		c0-5-7-10-15-10s-15-7-15-15s-7-15-15-15s-15-7-15-15s-7-15-15-15s-15-7-15-15s-7-15-15-15s-15-7-15-15s-7-15-15-15s-15-7-15-15
		s-7-15-15-15s-15-7-15-15s-7-15-15-15s-15-5-15-11c0-14-25-39-39-39c-6,0-11-7-11-15s-7-15-15-15s-15-7-15-15s-7-15-15-15
		s-15-7-15-15s-7-15-15-15s-15-7-15-15s-7-15-15-15s-15-7-15-15s-7-15-15-15s-15-7-15-15s-7-15-15-15c-9,0-15-9-15-25
		c0-14-4-25-10-25c-5,0-10-7-10-15s-7-15-15-15s-15-7-15-15s-7-15-15-15s-15-7-15-15s-7-15-15-15c-10,0-15-10-15-30s-5-30-15-30
		c-8,0-15-7-15-15s-7-15-15-15s-15-7-15-15s-7-15-15-15c-9,0-15-9-15-25s-6-25-15-25c-8,0-15-7-15-15s-4-15-10-15c-5,0-10-13-10-30
		c0-20-5-30-15-30c-8,0-15-7-15-15s-7-15-15-15c-10,0-15-10-15-30s-5-30-15-30c-8,0-15-7-15-15s-7-15-15-15c-9,0-15-9-15-25
		s-6-25-15-25c-8,0-15-7-15-15s-7-15-15-15c-10,0-15-10-15-30s-5-30-15-30s-15-10-15-30c0-16-4-30-10-30c-5,0-10-11-10-25
		c0-16-6-25-15-25c-10,0-15-10-15-30s-5-30-15-30c-8,0-15-7-15-15s-7-15-15-15c-10,0-15-10-15-30s-5-30-15-30c-11,0-15-11-15-40
		s-4-40-15-40c-10,0-15-10-15-30s-5-30-15-30s-15-10-15-30s-5-30-15-30c-11,0-15-12-15-45c0-25-4-45-10-45c-5,0-10-11-10-25
		c0-16-6-25-15-25c-11,0-15-12-15-45s-4-45-15-45s-15-12-15-45s-4-45-15-45s-15-11-15-40s-4-40-15-40c-10,0-15-10-15-30s5-30,15-30
		c13,0,15-27,15-185s2-185,15-185c12,0,15-19,15-115s-3-115-15-115c-8,0-15-7-15-15s-7-15-15-15c-10,0-15-10-15-30s-5-30-15-30
		c-8,0-15-7-15-15s-7-15-15-15s-15-7-15-15s-7-15-15-15c-10,0-15-10-15-30c0-16-5-30-11-30c-19,0-39-28-39-54c0-16-6-26-15-26
		c-10,0-15-10-15-30s-5-30-15-30s-15-10-15-30s-5-30-15-30c-9,0-15-9-15-25s-6-25-15-25c-10,0-15-10-15-30s-5-30-15-30
		c-11,0-15-12-15-45s-4-45-15-45c-12,0-15-14-15-70s-3-70-15-70s-15-19-15-115c0-70-4-115-10-115c-5,0-10-7-10-15s5-15,10-15
		c6,0,10-60,10-160c0-136,2-160,15-160c12,0,15-14,15-70s3-70,15-70s15-13,15-60s3-60,15-60c11,0,15-11,15-40s4-40,15-40
		s15-12,15-45s4-45,15-45s15-12,15-45s4-45,15-45c9,0,15-9,15-25s6-25,15-25c11,0,15-12,15-45c0-25,5-45,10-45c6,0,10-13,10-30
		c0-20,5-30,15-30c11,0,15-11,15-40s4-40,15-40c10,0,15-10,15-30s5-30,15-30c11,0,15-12,15-45s4-45,15-45c10,0,15-10,15-30
		s5-30,15-30c9,0,15-9,15-25s-6-25-15-25c-8,0-15-7-15-15s-7-15-15-15s-15-7-15-15s-7-15-15-15c-10,0-15-10-15-30s-5-30-15-30
		c-8,0-15-7-15-15s-7-15-15-15c-9,0-15-9-15-25c0-14-4-25-10-25c-5,0-10-13-10-30c0-20-5-30-15-30s-15-10-15-30s-5-30-15-30
		c-11,0-15-12-15-45s-4-45-15-45s-15-11-15-40s-4-40-15-40c-12,0-15-13-15-60s-3-60-15-60s-15-13-15-55s-3-55-15-55s-15-15-15-75
		s-3-75-15-75s-15-14-15-70c0-40-4-70-10-70s-10-35-10-85c0-69-3-85-15-85c-10,0-15-10-15-30s-5-30-15-30c-8,0-15-7-15-15
		s-7-15-15-15s-15-7-15-15c0-10-10-15-30-15s-30-5-30-15c0-8-7-15-15-15s-15-7-15-15s-7-15-15-15s-15-4-15-10c0-5-11-10-25-10
		c-16,0-25-6-25-15c0-8-7-15-15-15s-15-7-15-15s-7-15-15-15s-15-7-15-15c0-10-10-15-30-15s-30-5-30-15c0-8-7-15-15-15s-15-7-15-15
		c0-9-9-15-25-15s-25-6-25-15c0-8-7-15-15-15s-15-7-15-15c0-10-10-15-30-15s-30-5-30-15c0-8-7-15-15-15s-15-4-15-10c0-5-13-10-30-10
		c-20,0-30-5-30-15c0-8-7-15-15-15s-15-7-15-15c0-9-9-15-25-15s-25-6-25-15c0-10-10-15-30-15s-30-5-30-15c0-8-7-15-15-15
		s-15-7-15-15c0-10-10-15-30-15s-30-5-30-15s-10-15-30-15s-30-5-30-15c0-9-9-15-25-15c-14,0-25-4-25-10c0-5-7-10-15-10s-15-7-15-15
		c0-10-10-15-30-15s-30-5-30-15s-10-15-30-15s-30-5-30-15c0-9-9-15-25-15s-25-6-25-15c0-10-10-15-30-15s-30-5-30-15
		c0-11-12-15-45-15s-45-4-45-15c0-10-10-15-30-15s-30-5-30-15c0-9-9-15-25-15c-14,0-25-4-25-10c0-5-13-10-30-10c-20,0-30-5-30-15
		c0-11-12-15-45-15s-45-4-45-15s-11-15-40-15s-40-4-40-15c0-10-10-15-30-15s-30-5-30-15c0-12-13-15-60-15s-60-3-60-15
		c0-11-11-15-40-15s-40-4-40-15c0-12-13-15-60-15s-60-3-60-15s-14-15-70-15c-40,0-70-4-70-10s-60-10-160-10c-136,0-160-2-160-15
		c0-8-7-15-15-15s-15-7-15-15s-7-15-15-15s-15-7-15-15s-4-15-10-15c-5,0-10-13-10-30c0-16,5-30,10-30c6,0,10-13,10-30
		c0-27,3-30,30-30c17,0,30-4,30-10s70-10,190-10c162,0,190-2,190-15s21-15,125-15h125v-30c0-20,5-30,15-30c8,0,15-7,15-15
		c0-13,24-15,160-15s160-2,160-15c0-8,7-15,15-15c13,0,15-31,15-215s2-215,15-215c8,0,15-7,15-15c0-10,10-15,30-15s30-5,30-15
		c0-8,5-15,10-15c6,0,10-25,10-55c0-42,3-55,15-55c13,0,15-24,15-160s-2-160-15-160c-8,0-15-7-15-15s-4-15-10-15c-5,0-10-7-10-15
		s-7-15-15-15s-15-7-15-15c0-12-18-15-100-15s-100,3-100,15c0,8-7,15-15,15s-15,7-15,15s-7,15-15,15s-15,7-15,15s-7,15-15,15
		s-15,7-15,15s-7,15-15,15c-10,0-15,10-15,30s-5,30-15,30c-8,0-15,7-15,15s-7,15-15,15s-15,5-15,10c0,6-7,10-15,10
		c-10,0-15,10-15,30s-5,30-15,30c-8,0-15,7-15,15s-4,15-10,15c-5,0-10,14-10,30c0,20-5,30-15,30c-8,0-15,7-15,15s-7,15-15,15
		c-9,0-15,9-15,25s-6,25-15,25c-8,0-15,7-15,15s-7,15-15,15s-15,7-15,15c0,11-12,15-45,15s-45-4-45-15c0-8-4-15-10-15
		c-5,0-10-5-10-11c0-14,25-39,39-39c6,0,11-13,11-30c0-20,5-30,15-30c8,0,15-7,15-15s7-15,15-15c10,0,15-10,15-30s5-30,15-30
		s15-10,15-30s5-30,15-30c9,0,15-9,15-25s6-25,15-25c10,0,15-10,15-30s5-30,15-30s15-10,15-30c0-16,5-30,10-30c6,0,10-25,10-55
		c0-42,3-55,15-55s15-13,15-60s3-60,15-60c8,0,15-7,15-15c0-10,10-15,30-15h30v-115c0-96,3-115,15-115c8,0,15-7,15-15s7-15,15-15
		s15-7,15-15s7-15,15-15s15-4,15-10c0-5,7-10,15-10s15-7,15-15s5-15,10-15c6,0,10-13,10-30c0-20,5-30,15-30c8,0,15-7,15-15
		s7-15,15-15c10,0,15-10,15-30s5-30,15-30c11,0,15-11,15-40s4-40,15-40c10,0,15-10,15-30s-5-30-15-30s-15-10-15-30s-5-30-15-30
		c-8,0-15-7-15-15s-7-15-15-15s-15-7-15-15s-5-15-11-15c-14,0-39-25-39-39c0-6-7-11-15-11s-15-7-15-15s-7-15-15-15
		c-10,0-15-10-15-30s-5-30-15-30c-12,0-15-14-15-70s3-70,15-70s15-13,15-60s3-60,15-60s15-13,15-55s3-55,15-55c11,0,15-12,15-45
		c0-25,5-45,10-45c6,0,10-27,10-60c0-47,3-60,15-60s15-13,15-55s3-55,15-55c11,0,15-12,15-45s4-45,15-45c12,0,15-14,15-70
		s-3-70-15-70s-15-16-15-85s-3-85-15-85s-15-13-15-60s-3-60-15-60c-11,0-15-12-15-45c0-25-4-45-10-45c-5,0-10-11-10-25
		c0-16-6-25-15-25c-11,0-15-12-15-45s-4-45-15-45c-10,0-15-10-15-30s-5-30-15-30c-8,0-15-7-15-15s-7-15-15-15c-9,0-15-9-15-25
		s-6-25-15-25c-8,0-15-7-15-15s-7-15-15-15s-15-7-15-15s-7-15-15-15s-15-7-15-15s-7-15-15-15s-15-7-15-15s-4-15-10-15
		c-5,0-10-7-10-15s-7-15-15-15s-15-7-15-15s-7-15-15-15s-15-4-15-10c0-5-13-10-30-10c-20,0-30-5-30-15s-10-15-30-15s-30-5-30-15
		c0-13-21-15-130-15s-130,2-130,15c0,11-11,15-40,15s-40,4-40,15c0,10-10,15-30,15c-16,0-30,5-30,10c0,6-7,10-15,10s-15,7-15,15
		c0,10-10,15-30,15s-30,5-30,15c0,8-4,15-10,15c-5,0-10,7-10,15s-7,15-15,15s-15,7-15,15s-7,15-15,15s-15,7-15,15s-7,15-15,15
		s-15,7-15,15s-7,15-15,15s-15,7-15,15s-7,15-15,15s-15,5-15,10c0,6-7,10-15,10s-15,7-15,15s-7,15-15,15s-15,7-15,15s-4,15-10,15
		c-5,0-10,7-10,15s-7,15-15,15c-10,0-15,10-15,30s-5,30-15,30c-8,0-15,7-15,15s-7,15-15,15s-15,7-15,15s-7,15-15,15
		c-12,0-15-17-15-90s3-90,15-90s15-13,15-55s3-55,15-55c11,0,15-12,15-45s4-45,15-45c10,0,15-10,15-30s5-30,15-30c9,0,15-9,15-25
		c0-14,5-25,10-25c6,0,10-7,10-15s7-15,15-15s15-7,15-15s7-15,15-15s15-7,15-15s7-15,15-15s15-7,15-15s7-15,15-15s15-7,15-15
		s7-15,15-15s15-7,15-15s7-15,15-15s15-4,15-10c0-5,11-10,25-10c16,0,25-6,25-15c0-10,10-15,30-15s30-5,30-15c0-11,12-15,45-15
		s45-4,45-15c0-12,13-15,55-15s55-3,55-15c0-13,32-15,230-15s230,2,230,15c0,12,17,15,90,15s90,3,90,15s13,15,55,15s55,3,55,15
		s13,15,60,15s60,3,60,15s13,15,55,15c30,0,55,5,55,10c0,6,20,10,45,10c33,0,45,4,45,15s11,15,40,15s40,4,40,15s12,15,45,15
		s45,4,45,15c0,10,10,15,30,15s30-5,30-15c0-8,7-15,15-15s15-7,15-15s7-15,15-15s15-5,15-11c0-14,25-39,39-39c6,0,11-7,11-15
		s7-15,15-15s15-7,15-15s7-15,15-15s15-7,15-15s7-15,15-15c10,0,15-10,15-30s5-30,15-30c8,0,15-7,15-15s7-15,15-15s15-7,15-15
		s7-15,15-15s15-4,15-10c0-5,7-10,15-10s15-7,15-15s5-15,10-15c6,0,10-7,10-15s7-15,15-15s15-7,15-15s7-15,15-15s15-7,15-15
		s7-15,15-15s15-7,15-15s7-15,15-15s15-7,15-15s7-15,15-15s15-7,15-15s7-15,15-15s15-7,15-15s7-15,15-15c9,0,15-9,15-25
		c0-14,5-25,10-25c6,0,10-7,10-15s7-15,15-15s15-7,15-15s7-15,15-15c10,0,15-10,15-30s5-30,15-30c8,0,15-7,15-15s7-15,15-15
		c9,0,15-9,15-25s6-25,15-25c11,0,15-12,15-45s4-45,15-45c12,0,15-14,15-70s-3-70-15-70c-8,0-15-7-15-15s-7-15-15-15s-15-7-15-15
		s-7-15-15-15s-15-7-15-15c0-10-10-15-30-15s-30-5-30-15c0-8-7-15-15-15s-15-7-15-15c0-9-9-15-25-15s-25-6-25-15c0-10-10-15-30-15
		s-30-5-30-15c0-11-12-15-45-15c-25,0-45-4-45-10c0-5-11-10-25-10c-16,0-25-6-25-15c0-10-10-15-30-15s-30-5-30-15c0-11-12-15-45-15
		s-45-4-45-15c0-10-10-15-30-15s-30-5-30-15c0-9-9-15-25-15s-25-6-25-15c0-8-7-15-15-15s-15-7-15-15s-7-15-15-15s-15,7-15,15
		c0,12-13,15-60,15s-60,3-60,15c0,11-11,15-40,15s-40,4-40,15c0,12-13,15-60,15s-60,3-60,15c0,10-10,15-30,15s-30,5-30,15
		c0,9-9,15-25,15s-25,6-25,15c0,10-10,15-30,15c-16,0-30,5-30,10c0,6-7,10-15,10s-15,7-15,15s-7,15-15,15s-15,7-15,15
		c0,10-10,15-30,15c-27,0-30,3-30,30c0,17-4,30-10,30c-5,0-10,7-10,15s-7,15-15,15c-10,0-15,10-15,30s-5,30-15,30c-9,0-15,9-15,25
		s-6,25-15,25c-11,0-15,12-15,45s-4,45-15,45c-13,0-15,34-15,245s2,245,15,245c12,0,15,14,15,70s3,70,15,70c8,0,15,7,15,15
		s-7,15-15,15s-15-7-15-15s-7-15-15-15c-9,0-15-9-15-25s-6-25-15-25c-10,0-15-10-15-30s-5-30-15-30s-15-10-15-30s-5-30-15-30
		c-8,0-15-7-15-15s-7-15-15-15c-10,0-15-10-15-30c0-16-4-30-10-30c-5,0-10-11-10-25c0-16-6-25-15-25c-10,0-15-10-15-30s-5-30-15-30
		c-11,0-15-12-15-45s-4-45-15-45c-10,0-15-10-15-30s-5-30-15-30c-11,0-15-11-15-40s-4-40-15-40c-12,0-15-13-15-60s-3-60-15-60
		c-13,0-15-26-15-170s2-170,15-170c10,0,15-10,15-30s5-30,15-30s15-10,15-30s5-30,15-30c8,0,15-7,15-15s7-15,15-15s15-4,15-10
		c0-5,7-10,15-10s15-7,15-15s7-15,15-15s15-7,15-15s5-15,10-15c6,0,10-7,10-15s7-15,15-15s15-7,15-15c0-10,10-15,30-15s30-5,30-15
		c0-8,7-15,15-15s15-7,15-15c0-10,10-15,30-15s30-5,30-15s10-15,30-15c17,0,30-5,30-11c0-19,28-39,54-39c16,0,26-6,26-15
		c0-8,7-15,15-15s15-7,15-15s7-15,15-15s15-7,15-15s7-15,15-15s15-7,15-15s7-15,15-15c10,0,15-10,15-30s5-30,15-30c11,0,15-11,15-40
		c0-22,5-40,10-40c6,0,10-20,10-45c0-33,4-45,15-45c12,0,15-13,15-55v-55h-85c-50,0-85,4-85,10s-18,10-41,10c-39,0-69-17-69-39
		c0-6-7-11-15-11s-15-7-15-15c0-10-10-15-30-15s-30-5-30-15c0-8-7-15-15-15s-15-7-15-15s-7-15-15-15s-15,7-15,15s-7,15-15,15
		s-15,7-15,15s-7,15-15,15c-10,0-15,10-15,30c0,17-5,30-11,30c-14,0-39,25-39,39c0,6-13,11-30,11c-20,0-30,5-30,15c0,8-7,15-15,15
		s-15,7-15,15s-7,15-15,15s-15,7-15,15s-7,15-15,15s-15,7-15,15s-7,15-15,15s-15,7-15,15c0,12-13,15-55,15s-55-3-55-15
		c0-8-7-15-15-15s-15-7-15-15s7-15,15-15c10,0,15-10,15-30s5-30,15-30c8,0,15-7,15-15s7-15,15-15c9,0,15-9,15-25c0-14,5-25,10-25
		c6,0,10-7,10-15s7-15,15-15s15-7,15-15s7-15,15-15s15-7,15-15s7-15,15-15c10,0,15-10,15-30s5-30,15-30c8,0,15-7,15-15s7-15,15-15
		s15-7,15-15s7-15,15-15s15-4,15-10c0-5,7-10,15-10s15-7,15-15s5-15,10-15c6,0,10-13,10-30c0-16-4-30-10-30s-10-40-10-100
		s4-100,10-100s10-20,10-45c0-33,4-45,15-45c8,0,15-7,15-15c0-10,10-15,30-15s30-5,30-15s10-15,30-15s30-5,30-15c0-8,7-15,15-15
		c11,0,15-11,15-40s4-40,15-40c8,0,15-7,15-15s7-15,15-15s15-7,15-15s5-15,10-15c6,0,10-7,10-15c0-10,10-15,30-15s30-5,30-15
		c0-8,7-15,15-15s15,7,15,15c0,12,14,15,70,15s70,3,70,15s13,15,60,15s60-3,60-15c0-11,12-15,45-15s45-4,45-15c0-9,9-15,25-15
		s25-6,25-15c0-10,10-15,30-15c17,0,30-4,30-10c0-5,14-10,30-10c20,0,30-5,30-15s10-15,30-15s30-5,30-15c0-13,21-15,130-15
		s130-2,130-15c0-8-7-15-15-15c-11,0-15-12-15-45s-4-45-15-45c-9,0-15-9-15-25s-6-25-15-25c-11,0-15-12-15-45s-4-45-15-45
		c-10,0-15-10-15-30s-5-30-15-30s-15-10-15-30s-5-30-15-30c-8,0-15-4-15-10c0-5-7-10-15-10c-10,0-15-10-15-30s-5-30-15-30
		s-15-10-15-30c0-16-4-30-10-30c-5,0-10-13-10-30c0-20-5-30-15-30s-15-10-15-30s-5-30-15-30c-9,0-15-9-15-25s-6-25-15-25
		c-12,0-15-17-15-90v-90h55c42,0,55,3,55,15c0,8,7,15,15,15s15,7,15,15s7,15,15,15s15,7,15,15c0,10,10,15,30,15s30,5,30,15
		c0,8,7,15,15,15s15,7,15,15s7,15,15,15s15,7,15,15s7,15,15,15s15,7,15,15s7,15,15,15c9,0,15,9,15,25c0,14,5,25,10,25
		c6,0,10,7,10,15s7,15,15,15c10,0,15,10,15,30s5,30,15,30c8,0,15,7,15,15s7,15,15,15c11,0,15,12,15,45s4,45,15,45c9,0,15,9,15,25
		s6,25,15,25c11,0,15,12,15,45s4,45,15,45s15,12,15,45s4,45,15,45c9,0,15,9,15,25c0,14,5,25,10,25c6,0,10-7,10-15c0-10,10-15,30-15
		c17,0,30-4,30-10c0-5,7-10,15-10s15-7,15-15c0-10,10-15,30-15s30-5,30-15s10-15,30-15s30-5,30-15s-10-15-30-15s-30-5-30-15
		c0-11-12-15-45-15s-45-4-45-15c0-10-10-15-30-15s-30-5-30-15c0-8-4-15-10-15s-10-55-10-145c0-122-2-145-15-145c-8,0-15-4-15-10
		c0-5-7-10-15-10s-15-7-15-15s-7-15-15-15s-15-7-15-15c0-10-10-15-30-15s-30-5-30-15c0-8-7-15-15-15s-15-7-15-15c0-9-9-15-25-15
		s-25-6-25-15c0-10-10-15-30-15s-30-5-30-15s-10-15-30-15s-30-5-30-15s-10-15-30-15c-16,0-30-4-30-10c0-5-7-10-15-10
		c-10,0-15-10-15-30s-5-30-15-30s-15-10-15-30s5-30,15-30c8,0,15-7,15-15c0-12,13-15,60-15s60,3,60,15c0,10,10,15,30,15s30,5,30,15
		c0,9,9,15,25,15s25,6,25,15c0,8,7,15,15,15s15,7,15,15s7,15,15,15s15,7,15,15c0,10,10,15,30,15c17,0,30,5,30,10c0,6,7,10,15,10
		s15,7,15,15c0,10,10,15,30,15s30,5,30,15c0,13,21,15,125,15s125-2,125-15c0-10,10-15,30-15s30,5,30,15c0,8,7,15,15,15s15,7,15,15
		s7,15,15,15s15,7,15,15s7,15,15,15s15,7,15,15s7,15,15,15c10,0,15,10,15,30s5,30,15,30c11,0,15,11,15,40c0,22,5,40,10,40
		c6,0,10-7,10-15s7-15,15-15c9,0,15-9,15-25s6-25,15-25c10,0,15-10,15-30s5-30,15-30c8,0,15-7,15-15s7-15,15-15c10,0,15-10,15-30
		s5-30,15-30c8,0,15-7,15-15s7-15,15-15s15-7,15-15s7-15,15-15c9,0,15-9,15-25c0-14,5-25,10-25c6,0,10-7,10-15s7-15,15-15
		c10,0,15-10,15-30s5-30,15-30s15-10,15-30s5-30,15-30c11,0,15-11,15-40s4-40,15-40c12,0,15-13,15-60s3-60,15-60s15-14,15-70
		s-3-70-15-70c-10,0-15-10-15-30s-5-30-15-30c-8,0-15-7-15-15s-7-15-15-15s-15-7-15-15s-7-15-15-15c-9,0-15-9-15-25s-6-25-15-25
		c-12,0-15-18-15-105s3-105,15-105c13,0,15-21,15-130s2-130,15-130c12,0,15-16,15-85s3-85,15-85s15-13,15-55s3-55,15-55
		c11,0,15-12,15-45s4-45,15-45c12,0,15-13,15-55s3-55,15-55c10,0,15-10,15-30s5-30,15-30s15-10,15-30s5-30,15-30s15-10,15-30
		c0-16,5-30,10-30c6,0,10-11,10-25c0-16,6-25,15-25c10,0,15-10,15-30s5-30,15-30c8,0,15-7,15-15s7-15,15-15c10,0,15-10,15-30
		s5-30,15-30c8,0,15-7,15-15s7-15,15-15s15-7,15-15s7-15,15-15s15-7,15-15s5-15,11-15c14,0,39-25,39-39c0-6,7-11,15-11s15-7,15-15
		s7-15,15-15s15-7,15-15s7-15,15-15s15-7,15-15c0-10,10-15,30-15s30-5,30-15s10-15,30-15s30-5,30-15c0-9,9-15,25-15s25-6,25-15
		c0-11,12-15,45-15c25,0,45-4,45-10s35-10,85-10c69,0,85-3,85-15s16-15,85-15s85,3,85,15s18,15,105,15c63,0,105,4,105,10
		s25,10,55,10c42,0,55,3,55,15c0,11,12,15,45,15s45,4,45,15c0,10,10,15,30,15s30,5,30,15c0,11,11,15,40,15s40,4,40,15
		c0,10,10,15,30,15s30,5,30,15s10,15,30,15s30,5,30,15c0,9,9,15,25,15s25,6,25,15c0,8,7,15,15,15s15,5,15,10c0,6,14,10,30,10
		c20,0,30,5,30,15s10,15,30,15s30,5,30,15c0,8,7,15,15,15s15,7,15,15c0,9,9,15,25,15s25,6,25,15c0,8,7,15,15,15s15,7,15,15
		c0,10,10,15,30,15s30,5,30,15c0,8,7,15,15,15s15,7,15,15s7,15,15,15s15,7,15,15s7,15,15,15s15,5,15,10c0,6,11,10,25,10
		c16,0,25,6,25,15c0,8,7,15,15,15s15,7,15,15s7,15,15,15s15,7,15,15s7,15,15,15s15,7,15,15s7,15,15,15s15,7,15,15c0,10,10,15,30,15
		s30,5,30,15c0,8,7,15,15,15s15,7,15,15s5,15,11,15c14,0,39,25,39,39c0,6,7,11,15,11s15,7,15,15s7,15,15,15s15,7,15,15s7,15,15,15
		s15,7,15,15s7,15,15,15s15,7,15,15c0,10,10,15,30,15c27,0,30-3,30-30c0-25,4-30,25-30c16,0,25-6,25-15c0-10,10-15,30-15s30-5,30-15
		c0-8-7-15-15-15c-9,0-15-9-15-25s-6-25-15-25c-8,0-15-7-15-15c0-9-9-15-25-15s-25-6-25-15c0-8-7-15-15-15s-15-7-15-15s-7-15-15-15
		s-15-7-15-15c0-10-10-15-30-15c-27,0-30-3-30-30c0-20-5-30-15-30c-8,0-15-7-15-15s-7-15-15-15c-13,0-15-22-15-140s2-140,15-140
		c10,0,15-10,15-30s5-30,15-30c8,0,15-7,15-15s7-15,15-15s15-7,15-15s7-15,15-15s15-7,15-15s7-15,15-15s15-7,15-15c0-12,14-15,70-15
		h70v30c0,20,5,30,15,30s15,10,15,30s5,30,15,30c12,0,15,13,15,55s3,55,15,55s15,18,15,105s3,105,15,105c8,0,15-7,15-15s7-15,15-15
		c13,0,15-24,15-160c0-100,4-160,10-160s10-7,10-15s7-15,15-15s15-7,15-15s7-15,15-15s15-7,15-15s7-15,15-15s15-7,15-15s7-15,15-15
		s15-4,15-10c0-5,14-10,30-10c20,0,30-5,30-15c0-8,7-15,15-15s15-7,15-15c0-9,9-15,25-15s25-6,25-15c0-10,10-15,30-15s30-5,30-15
		c0-8,7-15,15-15s15-7,15-15c0-10,10-15,30-15s30-5,30-15c0-8,7-15,15-15s15-7,15-15s7-15,15-15c9,0,15-9,15-25c0-21-5-25-30-25
		c-20,0-30-5-30-15c0-8-7-15-15-15s-15,7-15,15s-7,15-15,15s-15,7-15,15s-7,15-15,15s-15,5-15,10c0,6-7,10-15,10s-15,7-15,15
		s-7,15-15,15s-15,7-15,15s-7,15-15,15s-15,7-15,15s-4,15-10,15c-5,0-10,7-10,15s-7,15-15,15s-15,7-15,15s-7,15-15,15s-15,7-15,15
		c0,11-12,15-45,15s-45,4-45,15c0,13-34,15-245,15s-245-2-245-15c0-12-13-15-55-15s-55-3-55-15c0-11-12-15-45-15s-45-4-45-15
		c0-10-10-15-30-15s-30-5-30-15c0-9-9-15-25-15s-25-6-25-15c0-8-7-15-15-15s-15-7-15-15s-7-15-15-15c-9,0-15-9-15-25s-6-25-15-25
		c-10,0-15-10-15-30s-5-30-15-30c-12,0-15-18-15-100s3-100,15-100c10,0,15-10,15-30s5-30,15-30s15-10,15-30s5-30,15-30
		c8,0,15-7,15-15s7-15,15-15s15-7,15-15s5-15,10-15c6,0,10-7,10-15s7-15,15-15s15-4,15-10c0-5,14-10,30-10c20,0,30-5,30-15
		s10-15,30-15s30-5,30-15s10-15,30-15s30-5,30-15c0-8,7-15,15-15s15-7,15-15s5-15,10-15c6,0,10-7,10-15s7-15,15-15c10,0,15-10,15-30
		s5-30,15-30c9,0,15-9,15-25s6-25,15-25c11,0,15-12,15-45s4-45,15-45c10,0,15-10,15-30s5-30,15-30c11,0,15-11,15-40s4-40,15-40
		s15-12,15-45s4-45,15-45s15-12,15-45c0-25,5-45,10-45c6,0,10-18,10-40c0-29,4-40,15-40s15-12,15-45s4-45,15-45c10,0,15-10,15-30
		s5-30,15-30c8,0,15-4,15-10c0-5,20-10,45-10c33,0,45-4,45-15s11-15,40-15s40-4,40-15c0-10,10-15,30-15s30-5,30-15s10-15,30-15
		s30-5,30-15c0-8,7-15,15-15s15-7,15-15s7-15,15-15c10,0,15-10,15-30c0-16,5-30,10-30c6,0,10-11,10-25c0-16,6-25,15-25
		c8,0,15-7,15-15s7-15,15-15s15-7,15-15s7-15,15-15s15-7,15-15s7-15,15-15s15-7,15-15s7-15,15-15s15-7,15-15s7-15,15-15s15-7,15-15
		s7-15,15-15c12,0,15-13,15-55s-3-55-15-55c-13,0-15-21-15-130s2-130,15-130c8,0,15-7,15-15s7-15,15-15s15-7,15-15c0-9,9-15,25-15
		s25-6,25-15c0-8,7-15,15-15c9,0,15-9,15-25s6-25,15-25c8,0,15-7,15-15s7-15,15-15s15-7,15-15c0-10,10-15,30-15s30-5,30-15
		c0-8,7-15,15-15s15-7,15-15c0-11,11-15,40-15s40-4,40-15c0-12,13-15,60-15s60-3,60-15s19-15,115-15s115-3,115-15s19-15,115-15
		c70,0,115-4,115-10s45-10,115-10c96,0,115-3,115-15s18-15,100-15s100-3,100-15s16-15,85-15s85-3,85-15s18-15,100-15s100-3,100-15
		s17-15,90-15s90-3,90-15s16-15,85-15s85-3,85-15s16-15,85-15s85-3,85-15s15-15,75-15s75-3,75-15s16-15,85-15c50,0,85-4,85-10
		s30-10,70-10c56,0,70-3,70-15s15-15,75-15s75-3,75-15s14-15,70-15s70-3,70-15s14-15,70-15s70-3,70-15s17-15,90-15s90-3,90-15
		s14-15,70-15s70-3,70-15s14-15,70-15s70-3,70-15s15-15,75-15c43,0,75-4,75-10s35-10,85-10c69,0,85-3,85-15s14-15,70-15s70-3,70-15
		s17-15,90-15s90-3,90-15s18-15,100-15s100-3,100-15s19-15,115-15s115-3,115-15c0-13,21-15,130-15s130-2,130-15s71-15,575-15
		s575,2,575,15c0,12,19,15,115,15s115,3,115,15s18,15,100,15s100,3,100,15s16,15,85,15s85,3,85,15s13,15,60,15s60,3,60,15
		s14,15,70,15s70,3,70,15s13,15,60,15c33,0,60,4,60,10s25,10,55,10c42,0,55,3,55,15s13,15,60,15s60,3,60,15c0,11,11,15,40,15
		s40,4,40,15c0,12,13,15,60,15s60,3,60,15c0,11,12,15,45,15s45,4,45,15s11,15,40,15s40,4,40,15s12,15,45,15s45,4,45,15s11,15,40,15
		c22,0,40,5,40,10c0,6,20,10,45,10c33,0,45,4,45,15s12,15,45,15s45,4,45,15s11,15,40,15s40,4,40,15c0,10,10,15,30,15s30,5,30,15
		s10,15,30,15s30,5,30,15c0,8,7,15,15,15s15,7,15,15s7,15,15,15s15,7,15,15s7,15,15,15c9,0,15,9,15,25c0,14,5,25,10,25
		c6,0,10,20,10,45s-4,45-10,45c-5,0-10,20-10,45c0,33-4,45-15,45c-9,0-15,9-15,25s-6,25-15,25c-10,0-15,10-15,30s-5,30-15,30
		s-15,10-15,30s-5,30-15,30s-15,10-15,30s-5,30-15,30c-9,0-15,9-15,25s-6,25-15,25c-10,0-15,10-15,30s-5,30-15,30s-15,10-15,30
		c0,17-4,30-10,30c-5,0-10,20-10,45c0,33-4,45-15,45c-9,0-15,9-15,25s-6,25-15,25c-10,0-15,10-15,30s-5,30-15,30c-11,0-15,12-15,45
		s-4,45-15,45s-15,11-15,40s-4,40-15,40s-15,12-15,45s-4,45-15,45c-12,0-15,13-15,60s-3,60-15,60s-15,14-15,70s-3,70-15,70
		s-15,14-15,70c0,40-4,70-10,70s-10,32-10,75v75h40c29,0,40,4,40,15c0,10,10,15,30,15c27,0,30-3,30-30c0-20,5-30,15-30
		c11,0,15-12,15-45s4-45,15-45c10,0,15-10,15-30s5-30,15-30c8,0,15-4,15-10c0-5,7-10,15-10c10,0,15-10,15-30c0-16,5-30,10-30
		c6,0,10-7,10-15s7-15,15-15c10,0,15-10,15-30s5-30,15-30c8,0,15-7,15-15s7-15,15-15s15-7,15-15s7-15,15-15s15-4,15-10
		c0-5,14-10,30-10h30v85c0,69-3,85-15,85s-15,16-15,85s-3,85-15,85c-10,0-15,10-15,30v30h85c69,0,85-3,85-15c0-13,24-15,160-15
		s160,2,160,15c0,12,13,15,55,15s55,3,55,15c0,8-7,15-15,15c-9,0-15,9-15,25c0,14-4,25-10,25c-5,0-10,7-10,15s-7,15-15,15
		s-15,7-15,15s-7,15-15,15s-15,7-15,15s-7,15-15,15c-10,0-15,10-15,30s-5,30-15,30c-8,0-15,7-15,15s-7,15-15,15s-15,7-15,15
		s-7,15-15,15c-9,0-15,9-15,25s-6,25-15,25c-8,0-15,7-15,15s-4,15-10,15c-5,0-10,14-10,30c0,20-5,30-15,30c-8,0-15,7-15,15
		s-7,15-15,15c-10,0-15,10-15,30s-5,30-15,30c-8,0-15,5-15,10c0,6-7,10-15,10c-10,0-15,10-15,30s-5,30-15,30s-15,10-15,30
		s-5,30-15,30c-8,0-15,7-15,15s-7,15-15,15c-10,0-15,10-15,30c0,17-4,30-10,30c-5,0-10,11-10,25c0,16-6,25-15,25c-11,0-15,12-15,45
		s-4,45-15,45c-10,0-15,10-15,30s-5,30-15,30c-11,0-15,11-15,40s-4,40-15,40c-12,0-15,15-15,75s-3,75-15,75s-15,19-15,115
		s-3,115-15,115c-13,0-15,32-15,230s2,230,15,230s15,21,15,130s-2,130-15,130s-15,21-15,130v130h100c82,0,100,3,100,15s13,15,60,15
		c33,0,60,4,60,10s20,10,45,10c33,0,45,4,45,15c0,9,9,15,25,15s25,6,25,15c0,8,7,15,15,15s15,7,15,15s7,15,15,15s15,7,15,15
		s7,15,15,15s15,7,15,15s7,15,15,15s15,7,15,15s7,15,15,15s15,7,15,15s7,15,15,15c9,0,15,9,15,25c0,14,5,25,10,25c6,0,10,14,10,30
		c0,20,5,30,15,30c11,0,15,12,15,45s4,45,15,45c12,0,15,14,15,70s3,70,15,70c13,0,15,21,15,130v130h85c69,0,85,3,85,15s13,15,60,15
		s60,3,60,15c0,10,10,15,30,15c29,0,30-2,30-45c0-33-4-45-15-45c-12,0-15-13-15-55s-3-55-15-55s-15-15-15-75v-75h45c33,0,45,4,45,15
		c0,8,5,15,10,15c6,0,10,7,10,15s7,15,15,15s15,7,15,15s7,15,15,15c10,0,15,10,15,30s5,30,15,30c8,0,15,7,15,15s7,15,15,15
		c9,0,15,9,15,25s6,25,15,25c8,0,15,7,15,15s7,15,15,15c10,0,15,10,15,30s5,30,15,30c8,0,15,7,15,15c0,12,14,15,70,15h70v-130
		c0-109-2-130-15-130c-10,0-15-10-15-30s-5-30-15-30c-8,0-15-7-15-15s-7-15-15-15s-15-7-15-15s-7-15-15-15s-15-4-15-10
		c0-5-11-10-25-10c-16,0-25-6-25-15c0-10-10-15-30-15s-30-5-30-15c0-8-7-15-15-15s-15-7-15-15s-7-15-15-15s-15-7-15-15s-7-15-15-15
		c-11,0-15-12-15-45s-4-45-15-45s-15-11-15-40s4-40,15-40c8,0,15-7,15-15s7-15,15-15s15-7,15-15s7-15,15-15s15-7,15-15
		c0-12,14-15,70-15s70,3,70,15c0,11,12,15,45,15s45,4,45,15c0,10,10,15,30,15s30,5,30,15s10,15,30,15s30,5,30,15c0,9,9,15,25,15
		c14,0,25,5,25,10c0,6,7,10,15,10s15,7,15,15s7,15,15,15s15,7,15,15c0,10,10,15,30,15s30,5,30,15c0,8,7,15,15,15s15,7,15,15
		s7,15,15,15s15,7,15,15s5,15,10,15c6,0,10,7,10,15s7,15,15,15s15,7,15,15s7,15,15,15s15,7,15,15s7,15,15,15c9,0,15,9,15,25
		s6,25,15,25c8,0,15,7,15,15s7,15,15,15c10,0,15,10,15,30s5,30,15,30c8,0,15,7,15,15s7,15,15,15c10,0,15,10,15,30s5,30,15,30
		c9,0,15,9,15,25c0,14,5,25,10,25c6,0,10,20,10,45c0,33,4,45,15,45s15,12,15,45s4,45,15,45c12,0,15,13,15,55s3,55,15,55s15,16,15,85
		s3,85,15,85c13,0,15,26,15,175v175h45c33,0,45,4,45,15c0,9,9,15,25,15s25,6,25,15c0,8,7,15,15,15s15,7,15,15s7,15,15,15s15,5,15,10
		c0,6,7,10,15,10c10,0,15,10,15,30s5,30,15,30s15,10,15,30s5,30,15,30c11,0,15,12,15,45s4,45,15,45c12,0,15,19,15,115
		c0,70,4,115,10,115s10,97,10,270c0,233,2,270,15,270s15,23,15,145s2,145,15,145c10,0,15,10,15,30s5,30,15,30s15,10,15,30
		s5,30,15,30c9,0,15,9,15,25s6,25,15,25c10,0,15,10,15,30s5,30,15,30s15,10,15,30s5,30,15,30c11,0,15,11,15,40c0,22,5,40,10,40
		c6,0,10,14,10,30c0,20,5,30,15,30s15,10,15,30s5,30,15,30s15,10,15,30s5,30,15,30c11,0,15,11,15,40s4,40,15,40c10,0,15,10,15,30
		s5,30,15,30c11,0,15,12,15,45s4,45,15,45c10,0,15,10,15,30s5,30,15,30c11,0,15,11,15,40c0,22,5,40,10,40c6,0,10,20,10,45
		c0,33,4,45,15,45c12,0,15,13,15,55s3,55,15,55c11,0,15,12,15,45s4,45,15,45c12,0,15,13,15,55s3,55,15,55s15,13,15,60s3,60,15,60
		s15,14,15,70s3,70,15,70s15,15,15,75s3,75,15,75s15,14,15,70s3,70,15,70s15,15,15,75c0,43,4,75,10,75c7,0,10,357,10,1050
		c0,927,2,1050,15,1050c8,0,15-7,15-15c0-11,12-15,45-15s45-4,45-15s12-15,45-15s45-4,45-15c0-9,9-15,25-15s25-6,25-15
		c0-8,7-15,15-15c10,0,15,10,15,30s-5,30-15,30c-8,0-15,7-15,15s-7,15-15,15s-15,5-15,11s-6,17-14,25s-19,14-25,14s-11,14-11,30
		c0,20-5,30-15,30c-8,0-15,7-15,15s-7,15-15,15s-15,7-15,15s-7,15-15,15c-10,0-15,10-15,30s-5,30-15,30c-8,0-15,7-15,15s-7,15-15,15
		c-9,0-15,9-15,25s-6,25-15,25c-10,0-15,10-15,30c0,17-4,30-10,30c-5,0-10,7-10,15s5,15,10,15c6,0,10,14,10,30c0,20,5,30,15,30
		c8,0,15,7,15,15c0,12,15,15,75,15s75-3,75-15c0-13,26-15,170-15s170,2,170,15c0,8-7,15-15,15s-15,7-15,15s-5,15-11,15
		c-19,0-39,28-39,54c0,16-6,26-15,26c-8,0-15,7-15,15s-7,15-15,15c-10,0-15,10-15,30v30h85c69,0,85,3,85,15c0,8,7,15,15,15
		c12,0,15,18,15,100s-3,100-15,100c-10,0-15,10-15,30s-5,30-15,30c-8,0-15,5-15,10c0,6-7,10-15,10c-10,0-15,10-15,30s-5,30-15,30
		s-15,10-15,30v30h-125c-104,0-125,2-125,15c0,10-10,15-30,15s-30,5-30,15s-10,15-30,15s-30,5-30,15c0,8-7,15-15,15s-15,7-15,15
		c0,9-10,15-26,15c-26,0-54,20-54,39c0,6-7,11-15,11s-15,7-15,15s-7,15-15,15c-10,0-15,10-15,30s-5,30-15,30c-11,0-15,12-15,45
		s-4,45-15,45s-15,11-15,40s-4,40-15,40c-10,0-15,10-15,30s-5,30-15,30c-11,0-15,12-15,45s-4,45-15,45s-15,11-15,40s-4,40-15,40
		c-10,0-15,10-15,30c0,17-4,30-10,30c-5,0-10,7-10,15c0,10-10,15-30,15s-30-5-30-15s-10-15-30-15h-30v-115c0-96,3-115,15-115
		c8,0,15-7,15-15c0-10-10-15-30-15s-30,5-30,15c0,8-7,15-15,15s-15,7-15,15s-7,15-15,15s-15,7-15,15s-4,15-10,15c-5,0-10,7-10,15
		s-7,15-15,15s-15,5-15,10c0,6-7,10-15,10s-15,7-15,15s-7,15-15,15s-15,7-15,15s-7,15-15,15s-15,7-15,15s-7,15-15,15s-15,7-15,15
		s-7,15-15,15c-10,0-15,10-15,30s-5,30-15,30c-8,0-15,7-15,15s-4,15-10,15c-5,0-10,11-10,25c0,16-6,25-15,25c-10,0-15,10-15,30
		s-5,30-15,30s-15,10-15,30s-5,30-15,30s-15,10-15,30s-5,30-15,30c-9,0-15,9-15,25s-6,25-15,25c-11,0-15,12-15,45s-4,45-15,45
		c-12,0-15,13-15,60s-3,60-15,60c-9,0-15,9-15,25s6,25,15,25c8,0,15-7,15-15s7-15,15-15s15-4,15-10c0-5,14-10,30-10c20,0,30-5,30-15
		c0-8,7-15,15-15s15-7,15-15s7-15,15-15s15-7,15-15c0-9,9-15,25-15s25-6,25-15c0-10,10-15,30-15s30-5,30-15c0-8,7-15,15-15
		s15-7,15-15c0-10,10-15,30-15s30-5,30-15c0-11,11-15,40-15s40-4,40-15c0-12,15-15,75-15s75,3,75,15c0,8,7,15,15,15
		c10,0,15,10,15,30s-5,30-15,30s-15,10-15,30s-5,30-15,30c-8,0-15,7-15,15s-7,15-15,15c-10,0-15,10-15,30s-5,30-15,30
		c-8,0-15,5-15,10c0,6-7,10-15,10s-15,7-15,15s-7,15-15,15s-15,7-15,15s-4,15-10,15c-5,0-10,7-10,15s-7,15-15,15s-15,7-15,15
		s-7,15-15,15s-15,7-15,15s-7,15-15,15s-15,7-15,15s-7,15-15,15s-15,7-15,15c0,10-10,15-30,15c-16,0-30,5-30,10c0,6-7,10-15,10
		c-12,0-15,15-15,75s3,75,15,75c10,0,15,10,15,30s5,30,15,30c8,0,15,5,15,10c0,6,7,10,15,10s15,7,15,15c0,10,10,15,30,15s30,5,30,15
		s10,15,30,15s30,5,30,15c0,11,11,15,40,15s40,4,40,15c0,10,10,15,30,15c27,0,30,3,30,30c0,20-5,30-15,30c-8,0-15,7-15,15
		s-7,15-15,15s-15,5-15,10c0,6-7,10-15,10s-15,7-15,15s-7,15-15,15s-15,7-15,15s-4,15-10,15c-5,0-10,7-10,15c0,10-10,15-30,15
		s-30,5-30,15c0,8-7,15-15,15s-15,7-15,15s-7,15-15,15c-12,0-15,16-15,85s3,85,15,85s15,16,15,85s3,85,15,85s15,18,15,105
		s3,105,15,105s15,19,15,115s3,115,15,115c13,0,15,27,15,185c0,117,4,185,10,185s10,112,10,315s-4,315-10,315s-10,60-10,160
		c0,136-2,160-15,160c-12,0-15,16-15,85s-3,85-15,85s-15,15-15,75s-3,75-15,75s-15,13-15,55s-3,55-15,55s-15,13-15,60s-3,60-15,60
		c-11,0-15,11-15,40s-4,40-15,40c-10,0-15,10-15,30s-5,30-15,30c-11,0-15,12-15,45c0,25-4,45-10,45c-5,0-10,11-10,25
		c0,16-6,25-15,25c-10,0-15,10-15,30s-5,30-15,30s-15,10-15,30s-5,30-15,30s-15,10-15,30s-5,30-15,30c-9,0-15,9-15,25s-6,25-15,25
		c-10,0-15,10-15,30s-5,30-15,30c-8,0-15,7-15,15s-7,15-15,15c-10,0-15,10-15,30c0,17-4,30-10,30c-5,0-10,7-10,15s-7,15-15,15
		c-9,0-15,9-15,25s-6,25-15,25c-8,0-15,7-15,15s-7,15-15,15s-15,7-15,15s-7,15-15,15s-15,7-15,15s-7,15-15,15s-15,7-15,15
		s-7,15-15,15s-15,7-15,15s-7,15-15,15s-15,7-15,15s-4,15-10,15c-5,0-10,14-10,30c0,27-3,30-30,30c-16,0-30,5-30,10c0,6-7,10-15,10
		s-15,7-15,15s-7,15-15,15s-15,7-15,15s-7,15-15,15s-15,7-15,15s-7,15-15,15s-15,7-15,15s-7,15-15,15s-15,7-15,15s-7,15-15,15
		s-15,7-15,15c0,9-9,15-25,15s-25,6-25,15c0,8-7,15-15,15s-15,5-15,10c0,6-7,10-15,10s-15,7-15,15c0,10-10,15-30,15s-30,5-30,15
		c0,8-7,15-15,15s-15,7-15,15s-7,15-15,15s-15,7-15,15s-4,15-10,15c-5,0-10,7-10,15s-7,15-15,15c-12,0-15,19-15,115s-3,115-15,115
		s-15,13-15,55s-3,55-15,55c-11,0-15,12-15,45s-4,45-15,45s-15,12-15,45s-4,45-15,45c-9,0-15,9-15,25s-6,25-15,25c-10,0-15,10-15,30
		s-5,30-15,30s-15,10-15,30c0,17-4,30-10,30c-5,0-10,14-10,30c0,20-5,30-15,30c-9,0-15,9-15,25s-6,25-15,25c-8,0-15,7-15,15
		s-7,15-15,15c-10,0-15,10-15,30s-5,30-15,30s-15,10-15,30s-5,30-15,30c-8,0-15,7-15,15s-7,15-15,15s-15,7-15,15s-7,15-15,15
		c-9,0-15,9-15,25c0,14-4,25-10,25c-5,0-10,7-10,15s-7,15-15,15s-15,7-15,15s-7,15-15,15s-15,7-15,15s-7,15-15,15c-10,0-15,10-15,30
		s-5,30-15,30c-8,0-15,7-15,15s-7,15-15,15s-15,5-15,10c0,6-7,10-15,10s-15,7-15,15s-7,15-15,15s-15,7-15,15s-4,15-10,15
		c-5,0-10,7-10,15s-7,15-15,15s-15,7-15,15s-7,15-15,15s-15,7-15,15s-7,15-15,15s-15,7-15,15s-7,15-15,15s-15,7-15,15s-7,15-15,15
		s-15,5-15,10c0,6-7,10-15,10s-15,7-15,15s-7,15-15,15s-15,7-15,15s-7,15-15,15s-15,7-15,15s-4,15-10,15c-5,0-10,7-10,15
		s-7,15-15,15s-15,7-15,15c0,10-10,15-30,15s-30,5-30,15c0,8-7,15-15,15s-15,7-15,15s-7,15-15,15s-15,5-15,10c0,6-7,10-15,10
		s-15,7-15,15c0,9-9,15-25,15s-25,6-25,15c0,8-7,15-15,15s-15,7-15,15s-7,15-15,15s-15,7-15,15c0,10-10,15-30,15s-30,5-30,15
		c0,8-7,15-15,15s-15,7-15,15c0,10-10,15-30,15s-30,5-30,15c0,8-4,15-10,15c-5,0-10,7-10,15c0,10-10,15-30,15c-16,0-30,5-30,10
		c0,6-7,10-15,10s-15,7-15,15c0,10-10,15-30,15s-30,5-30,15c0,8-7,15-15,15s-15,7-15,15c0,9-9,15-25,15s-25,6-25,15
		c0,10-10,15-30,15s-30,5-30,15s-10,15-30,15s-30,5-30,15c0,8-7,15-15,15s-15,7-15,15c0,10-10,15-30,15c-16,0-30,5-30,10
		c0,6-11,10-25,10c-16,0-25,6-25,15c0,10-10,15-30,15s-30,5-30,15s-10,15-30,15s-30,5-30,15s-10,15-30,15s-30,5-30,15
		c0,11-11,15-40,15s-40,4-40,15c0,10-10,15-30,15s-30,5-30,15s-10,15-30,15s-30,5-30,15c0,11-11,15-40,15c-22,0-40,5-40,10
		c0,6-13,10-30,10c-20,0-30,5-30,15c0,11-12,15-45,15s-45,4-45,15s-11,15-40,15s-40,4-40,15c0,10-10,15-30,15s-30,5-30,15
		c0,11-12,15-45,15s-45,4-45,15c0,12-13,15-55,15s-55,3-55,15c0,11-12,15-45,15s-45,4-45,15s-12,15-45,15c-25,0-45,5-45,10
		c0,6-25,10-55,10c-42,0-55,3-55,15s-13,15-60,15s-60,3-60,15s-14,15-70,15s-70,3-70,15s-14,15-70,15s-70,3-70,15s-15,15-75,15
		s-75,3-75,15c0,11-11,15-40,15s-40,4-40,15s-12,15-45,15s-45,4-45,15c0,10-10,15-30,15s-30,5-30,15s-10,15-30,15c-16,0-30,5-30,10
		c0,6-11,10-25,10c-16,0-25,6-25,15c0,10-10,15-30,15s-30,5-30,15s-10,15-30,15s-30,5-30,15c0,8-7,15-15,15s-15,7-15,15
		c0,10-10,15-30,15s-30,5-30,15c0,9-9,15-25,15s-25,6-25,15c0,8-7,15-15,15s-15,7-15,15c0,10-10,15-30,15c-16,0-30,5-30,10
		c0,6-7,10-15,10s-15,7-15,15c0,10-10,15-30,15s-30,5-30,15c0,8-4,15-10,15c-5,0-10,7-10,15c0,10-10,15-30,15s-30,5-30,15
		c0,8-7,15-15,15s-15,7-15,15c0,10-10,15-30,15s-30,5-30,15c0,8-7,15-15,15s-15,7-15,15c0,9-9,15-25,15c-14,0-25,5-25,10
		c0,6-7,10-15,10s-15,7-15,15c0,10-10,15-30,15s-30,5-30,15c0,8-7,15-15,15s-15,7-15,15c0,10-10,15-30,15s-30,5-30,15
		c0,8-7,15-15,15s-15,7-15,15c0,9-9,15-25,15s-25,6-25,15c0,8-7,15-15,15s-15,7-15,15s-7,15-15,15s-15,5-15,10c0,6-13,10-30,10
		c-20,0-30,5-30,15c0,8-7,15-15,15s-15,7-15,15c0,9-9,15-25,15s-25,6-25,15c0,8-7,15-15,15s-15,7-15,15c0,10-10,15-30,15
		s-30,5-30,15c0,8-7,15-15,15s-15,7-15,15c0,12-18,15-100,15s-100,3-100,15c0,13-39,15-290,15s-290-2-290-15c0-12-16-15-85-15
		s-85,3-85,15c0,8-7,15-15,15s-15,5-15,10c0,6-7,10-15,10s-15,7-15,15c0,10-10,15-30,15s-30,5-30,15c0,12-13,15-55,15s-55,3-55,15
		c0,11-12,15-45,15s-45,4-45,15c0,13-134,15-1150,15S12100,31738,12100,31725z M13080,30405c0-10,10-15,30-15s30-5,30-15
		c0-8,7-15,15-15s15-7,15-15c0-9,9-15,25-15s25-6,25-15c0-8,7-15,15-15s15-7,15-15s7-15,15-15s15-7,15-15s7-15,15-15s15-7,15-15
		c0-12,13-15,55-15s55,3,55,15c0,11,12,15,45,15s45,4,45,15s12,15,45,15s45,4,45,15s11,15,40,15s40-4,40-15c0-8,7-15,15-15
		s15-7,15-15s-7-15-15-15c-9,0-15-9-15-25c0-14-4-25-10-25c-5,0-10-13-10-30c0-20-5-30-15-30c-8,0-15-7-15-15s-7-15-15-15
		c-10,0-15-10-15-30s-5-30-15-30c-8,0-15-7-15-15s-7-15-15-15s-15-7-15-15c0-10-10-15-30-15c-16,0-30-4-30-10c0-5-7-10-15-10
		c-10,0-15-10-15-30c0-29,2-30,45-30c33,0,45-4,45-15c0-8,7-15,15-15s15-7,15-15c0-10,10-15,30-15s30-5,30-15c0-9,9-15,25-15
		s25-6,25-15c0-8,7-15,15-15s15-7,15-15s7-15,15-15s15-4,15-10c0-5,7-10,15-10s15-7,15-15s7-15,15-15s15-7,15-15s7-15,15-15
		s15-7,15-15s7-15,15-15s15-7,15-15s-7-15-15-15s-15-7-15-15c0-12-15-15-75-15s-75,3-75,15s-13,15-55,15s-55,3-55,15
		c0,11-12,15-45,15s-45,4-45,15c0,10-10,15-30,15c-27,0-30,3-30,30c0,25-4,30-25,30c-14,0-25,5-25,10c0,6-32,10-75,10s-75-4-75-10
		c0-5-18-10-40-10c-29,0-40-4-40-15s-12-15-45-15s-45,4-45,15c0,12-19,15-115,15h-115v25c0,21,5,25,30,25c20,0,30,5,30,15
		c0,8,7,15,15,15s15,7,15,15c0,9,9,15,25,15s25,6,25,15c0,8,7,15,15,15s15,7,15,15c0,11,12,15,45,15s45,4,45,15c0,8,7,15,15,15
		c12,0,15,13,15,55s-3,55-15,55s-15,13-15,60s-3,60-15,60s-15,13-15,55s-3,55-15,55s-15,15-15,75v75h30
		C13070,30420,13080,30415,13080,30405z M13140,27785c0-13,29-15,200-15s200-2,200-15s24-15,160-15s160-2,160-15c0-12,19-15,115-15
		s115-3,115-15s19-15,115-15s115-3,115-15s18-15,100-15s100-3,100-15s18-15,100-15c60,0,100-4,100-10s35-10,85-10c69,0,85-3,85-15
		s17-15,90-15s90-3,90-15s16-15,85-15s85-3,85-15s13-15,55-15s55-3,55-15s13-15,60-15s60-3,60-15s13-15,55-15s55-3,55-15
		c0-11,12-15,45-15s45-4,45-15c0-12,13-15,60-15c33,0,60-4,60-10c0-5,18-10,40-10c29,0,40-4,40-15c0-12,13-15,60-15s60-3,60-15
		c0-11,11-15,40-15s40-4,40-15s12-15,45-15s45-4,45-15s12-15,45-15s45-4,45-15s11-15,40-15s40-4,40-15s12-15,45-15s45-4,45-15
		s11-15,40-15s40-4,40-15s12-15,45-15c25,0,45-4,45-10c0-5,20-10,45-10c33,0,45-4,45-15s11-15,40-15s40-4,40-15c0-10,10-15,30-15
		s30-5,30-15c0-11,12-15,45-15s45-4,45-15c0-10,10-15,30-15s30-5,30-15c0-11,11-15,40-15s40-4,40-15c0-10,10-15,30-15s30-5,30-15
		s10-15,30-15c17,0,30-4,30-10c0-5,11-10,25-10c16,0,25-6,25-15c0-11,12-15,45-15s45-4,45-15c0-10,10-15,30-15s30-5,30-15
		s10-15,30-15s30-5,30-15c0-9,9-15,25-15s25-6,25-15c0-10,10-15,30-15s30-5,30-15s10-15,30-15s30-5,30-15c0-9,10-15,26-15
		c26,0,54-20,54-39c0-6,14-11,30-11c20,0,30-5,30-15s10-15,30-15s30-5,30-15c0-8,7-15,15-15s15-7,15-15c0-10,10-15,30-15s30-5,30-15
		c0-9,9-15,25-15s25-6,25-15c0-8,7-15,15-15s15-7,15-15c0-10,10-15,30-15c17,0,30-4,30-10c0-5,7-10,15-10s15-7,15-15s7-15,15-15
		s15-7,15-15c0-10,10-15,30-15s30-5,30-15c0-8,5-15,10-15c6,0,10-7,10-15s7-15,15-15s15-7,15-15s7-15,15-15s15-7,15-15s7-15,15-15
		s15-7,15-15s7-15,15-15s15-4,15-10c0-5,7-10,15-10s15-7,15-15s7-15,15-15s15-7,15-15s7-15,15-15s15-7,15-15s5-15,10-15
		c6,0,10-7,10-15s7-15,15-15c10,0,15-10,15-30s5-30,15-30c8,0,15-7,15-15s7-15,15-15c9,0,15-9,15-25s6-25,15-25c11,0,15-12,15-45
		s4-45,15-45c12,0,15-13,15-60s3-60,15-60s15-13,15-55s3-55,15-55s15-14,15-70c0-40,4-70,10-70s10-32,10-75c0-60,3-75,15-75
		s15-14,15-70s3-70,15-70s15-15,15-75s3-75,15-75s15-13,15-55s-3-55-15-55s-15-15-15-75s-3-75-15-75c-8,0-15-4-15-10
		c0-5-11-10-25-10c-16,0-25-6-25-15c0-8-7-15-15-15s-15,7-15,15s-7,15-15,15c-12,0-15,16-15,85s-3,85-15,85c-8,0-15,7-15,15
		s-7,15-15,15s-15,7-15,15c0,12-14,15-70,15s-70-3-70-15c0-10-10-15-30-15s-30-5-30-15c0-12-13-15-60-15s-60,3-60,15c0,9-9,15-25,15
		s-25,6-25,15c0,10-10,15-30,15c-16,0-30,5-30,10c0,6-7,10-15,10s-15,7-15,15c0,10-10,15-30,15s-30,5-30,15c0,8-7,15-15,15
		s-15,7-15,15c0,9-9,15-25,15s-25,6-25,15c0,8-7,15-15,15s-15,7-15,15c0,10-10,15-30,15s-30,5-30,15c0,8-7,15-15,15s-15,7-15,15
		s-7,15-15,15s-15,7-15,15c0,9-10,15-26,15c-26,0-54,20-54,39c0,6-13,11-30,11c-20,0-30,5-30,15c0,8-7,15-15,15s-15,7-15,15
		c0,10-10,15-30,15s-30,5-30,15c0,12-18,15-100,15s-100-3-100-15s-14-15-70-15s-70-3-70-15c0-13-24-15-160-15s-160-2-160-15
		s-37-15-275-15s-275-2-275-15s-75-15-615-15c-403,0-615-3-615-10c0-5-13-10-30-10c-20,0-30-5-30-15s-10-15-30-15s-30-5-30-15
		s-10-15-30-15s-30-5-30-15c0-11-11-15-40-15s-40-4-40-15c0-12-13-15-60-15s-60-3-60-15c0-10-10-15-30-15c-27,0-30-3-30-30
		c0-20-5-30-15-30c-9,0-15-9-15-25c0-14-4-25-10-25c-5,0-10-13-10-30c0-20-5-30-15-30c-8,0-15-7-15-15s-7-15-15-15s-15-7-15-15
		s-7-15-15-15s-15-7-15-15s-7-15-15-15s-15-7-15-15s-7-15-15-15s-15-7-15-15c0-9-10-15-26-15c-26,0-54-20-54-39c0-6-7-11-15-11
		s-15-7-15-15s-7-15-15-15s-15-7-15-15s-7-15-15-15c-10,0-15-10-15-30s5-30,15-30c8,0,15-7,15-15s7-15,15-15s15-7,15-15
		c0-9,9-15,25-15c14,0,25-4,25-10c0-5,7-10,15-10s15-7,15-15s7-15,15-15s15-7,15-15s7-15,15-15c10,0,15-10,15-30s5-30,15-30
		c13,0,15-23,15-145s-2-145-15-145c-9,0-15-9-15-25s-6-25-15-25c-11,0-15-12-15-45s-4-45-15-45c-13,0-15-24-15-160s-2-160-15-160
		c-9,0-15-10-15-26c0-26-20-54-39-54c-6,0-11-7-11-15s-7-15-15-15s-15-7-15-15s-7-15-15-15s-15-7-15-15s-7-15-15-15s-15-7-15-15
		s-7-15-15-15s-15-7-15-15s-7-15-15-15s-15-7-15-15s-7-15-15-15c-9,0-15-9-15-25c0-14-4-25-10-25c-5,0-10-20-10-45c0-33-4-45-15-45
		c-12,0-15-14-15-70s-3-70-15-70c-11,0-15-12-15-45s4-45,15-45c12,0,15-18,15-100s3-100,15-100c8,0,15-7,15-15c0-9,9-15,25-15
		s25-6,25-15c0-8,7-15,15-15c10,0,15-10,15-30s5-30,15-30c8,0,15-7,15-15s7-15,15-15c9,0,15-9,15-25s6-25,15-25c8,0,15-7,15-15
		c0-12,18-15,100-15s100,3,100,15c0,8,7,15,15,15c9,0,15,9,15,25s6,25,15,25c10,0,15,10,15,30s5,30,15,30c11,0,15,12,15,45
		c0,41,2,45,25,45c24,0,25-2,25-75c0-60,3-75,15-75c8,0,15-7,15-15c0-12,15-15,75-15h75v30c0,20,5,30,15,30c12,0,15,16,15,86
		c0,84,10,114,39,114c6,0,11,7,11,15s7,15,15,15s15,7,15,15s7,15,15,15s15,7,15,15s7,15,15,15s15,7,15,15s7,15,15,15s15,7,15,15
		s7,15,15,15s15,7,15,15s7,15,15,15c11,0,15,11,15,40c0,22,5,40,10,40c6,0,10,27,10,60s-4,60-10,60c-5,0-10,14-10,30
		c0,20-5,30-15,30c-8,0-15,5-15,10c0,6-7,10-15,10s-15,7-15,15s-7,15-15,15s-15,7-15,15s-7,15-15,15c-10,0-15,10-15,30s-5,30-15,30
		c-12,0-15,14-15,70s3,70,15,70c8,0,15,7,15,15s7,15,15,15s15,7,15,15c0,12,13,15,55,15s55-3,55-15c0-10,10-15,30-15s30-5,30-15
		c0-8,7-15,15-15s15,7,15,15c0,12,13,15,60,15s60,3,60,15c0,11,11,15,40,15s40,4,40,15c0,10,10,15,30,15s30,5,30,15
		c0,11,12,15,45,15s45,4,45,15c0,9,9,15,25,15s25,6,25,15c0,12,13,15,60,15c33,0,60,4,60,10s25,10,55,10s55-4,55-10c0-5,14-10,30-10
		c20,0,30-5,30-15c0-8,7-15,15-15s15-7,15-15s7-15,15-15s15-7,15-15s7-15,15-15s15-7,15-15s7-15,15-15s15-7,15-15s7-15,15-15
		c9,0,15-10,15-26c0-26,20-54,39-54c6,0,11-7,11-15s7-15,15-15c10,0,15-10,15-30s5-30,15-30c8,0,15-7,15-15c0-13,27-15,185-15
		s185,2,185,15c0,8,7,15,15,15s15,7,15,15c0,10,10,15,30,15s30,5,30,15s10,15,30,15s30,5,30,15c0,12,13,15,55,15s55-3,55-15
		c0-8,7-15,15-15s15-7,15-15s7-15,15-15s15-7,15-15s-7-15-15-15c-10,0-15-10-15-30s-5-30-15-30c-8,0-15-7-15-15c0-13-38-15-285-15
		s-285-2-285-15c0-8-7-15-15-15c-12,0-15-13-15-55s3-55,15-55c8,0,15-7,15-15c0-13,21-15,130-15s130-2,130-15c0-9,9-15,25-15
		s25-6,25-15c0-12,13-15,60-15s60-3,60-15c0-11,12-15,45-15c25,0,45-4,45-10s30-10,70-10s70,4,70,10s45,10,115,10h115v-25
		c0-16,6-25,15-25c10,0,15-10,15-30s5-30,15-30c8,0,15-7,15-15s7-15,15-15s15-7,15-15s-7-15-15-15s-15-7-15-15s-7-15-15-15
		s-15,7-15,15c0,12-13,15-60,15s-60,3-60,15c0,11-11,15-40,15s-40-4-40-15c0-8-7-15-15-15c-12,0-15-16-15-85s3-85,15-85s15-15,15-75
		s3-75,15-75c8,0,15-4,15-10s45-10,115-10s115,4,115,10s18,10,40,10c29,0,40,4,40,15c0,10,10,15,30,15s30,5,30,15c0,13,40,15,300,15
		s300-2,300-15c0-12,20-15,120-15s120-2,120-15c0-12,14-15,70-15c40,0,70-4,70-10c0-5,25-10,55-10c42,0,55-3,55-15s15-15,75-15
		s75-3,75-15c0-8,7-15,15-15c12,0,15-13,15-60s3-60,15-60c13,0,15-22,15-140v-140h-45c-33,0-45-4-45-15c0-8-7-15-15-15s-15-7-15-15
		s-7-15-15-15s-15-7-15-15c0-10-10-15-30-15s-30-5-30-15c0-8-4-15-10-15c-5,0-10-7-10-15c0-10-10-15-30-15s-30-5-30-15
		c0-8-7-15-15-15s-15-7-15-15s-7-15-15-15s-15-4-15-10c0-5-13-10-30-10c-27,0-30-3-30-30c0-20-5-30-15-30c-11,0-15-12-15-45
		c0-25-4-45-10-45c-5,0-10-13-10-30c0-20-5-30-15-30c-11,0-15-11-15-40s-4-40-15-40c-10,0-15-10-15-30s-5-30-15-30
		c-11,0-15-12-15-45s-4-45-15-45c-9,0-15-9-15-25s-6-25-15-25c-10,0-15-10-15-30s-5-30-15-30c-11,0-15-12-15-45s-4-45-15-45
		c-10,0-15-10-15-30s-5-30-15-30c-9,0-15-9-15-25c0-14-4-25-10-25c-5,0-10-7-10-15s-7-15-15-15c-10,0-15-10-15-30s-5-30-15-30
		c-8,0-15,7-15,15s-7,15-15,15c-11,0-15,12-15,45s-4,45-15,45c-9,0-15,9-15,25s-6,25-15,25c-8,0-15,7-15,15s-7,15-15,15s-15,7-15,15
		c0,12-13,15-55,15s-55-3-55-15c0-8-7-15-15-15c-13,0-15-21-15-130s2-130,15-130c9,0,15-9,15-25s6-25,15-25c8,0,15-7,15-15
		s7-15,15-15s15-7,15-15c0-9,9-15,25-15c21,0,25-5,25-30s-4-30-25-30c-16,0-25-6-25-15c0-12-13-15-60-15s-60-3-60-15s-13-15-55-15
		s-55-3-55-15c0-11-12-15-45-15c-25,0-45-4-45-10c0-5-20-10-45-10c-33,0-45-4-45-15c0-9-9-15-25-15s-25-6-25-15c0-11-12-15-45-15
		s-45-4-45-15s-12-15-45-15s-45-4-45-15c0-9-9-15-25-15s-25-6-25-15c0-8-7-15-15-15c-10,0-15-10-15-30s-5-30-15-30c-8,0-15-7-15-15
		s-7-15-15-15c-9,0-15-9-15-25s-6-25-15-25c-10,0-15-10-15-30s-5-30-15-30c-8,0-15-7-15-15s-7-15-15-15c-11,0-15-12-15-45
		s-4-45-15-45c-12,0-15-13-15-55s-3-55-15-55s-15-18-15-100c0-60-4-100-10-100s-10-27-10-60s4-60,10-60s10-25,10-55c0-42,3-55,15-55
		c10,0,15-10,15-30s5-30,15-30c8,0,15-7,15-15c0-10,10-15,30-15s30-5,30-15s10-15,30-15s30,5,30,15c0,11,11,15,40,15s40,4,40,15
		c0,12,15,15,75,15s75,3,75,15s14,15,70,15s70,3,70,15c0,13,24,15,160,15s160-2,160-15c0-10,10-15,30-15c27,0,30-3,30-30
		c0-20-5-30-15-30c-8,0-15-7-15-15c0-10-10-15-30-15s-30-5-30-15s-10-15-30-15c-16,0-30-4-30-10c0-5-13-10-30-10c-20,0-30-5-30-15
		c0-9-9-15-25-15s-25-6-25-15c0-10-10-15-30-15s-30-5-30-15s-10-15-30-15s-30-5-30-15s-10-15-30-15s-30-5-30-15c0-9-9-15-25-15
		s-25-6-25-15c0-8-7-15-15-15s-15-7-15-15c0-10-10-15-30-15s-30-5-30-15s-10-15-30-15c-16,0-30-4-30-10c0-5-7-10-15-10s-15-7-15-15
		s-4-15-10-15c-5,0-10-7-10-15s-7-15-15-15s-15-7-15-15s-7-15-15-15s-15-7-15-15s-7-15-15-15s-15-7-15-15s-7-15-15-15
		c-10,0-15-10-15-30s-5-30-15-30c-9,0-15-9-15-25s-6-25-15-25c-8,0-15-7-15-15c0-12-14-15-70-15s-70,3-70,15c0,10-10,15-30,15
		s-30,5-30,15c0,8-7,15-15,15s-15,5-15,10c0,6-13,10-30,10c-20,0-30,5-30,15c0,8-4,15-10,15c-5,0-10,7-10,15s-7,15-15,15
		s-15,7-15,15c0,10-10,15-30,15s-30,5-30,15c0,8-7,15-15,15s-15,7-15,15s-7,15-15,15s-15,7-15,15s-7,15-15,15s-15,7-15,15
		c0,9-9,15-25,15c-14,0-25,5-25,10c0,6-7,10-15,10s-15,7-15,15c0,10-10,15-30,15s-30,5-30,15s-10,15-30,15s-30,5-30,15
		c0,8-7,15-15,15s-15,7-15,15c0,9-9,15-25,15s-25,6-25,15c0,10-10,15-30,15s-30,5-30,15c0,11-12,15-45,15s-45,4-45,15
		c0,12-13,15-55,15s-55,3-55,15s-13,15-60,15c-33,0-60,4-60,10s-30,10-70,10c-56,0-70,3-70,15s-13,15-60,15s-60,3-60,15
		c0,10-10,15-30,15s-30,5-30,15c0,8-4,15-10,15c-5,0-10,7-10,15c0,10-10,15-30,15s-30,5-30,15c0,8-7,15-15,15s-15,7-15,15
		s-7,15-15,15s-15,7-15,15c0,10-10,15-30,15c-16,0-30,5-30,10c0,6-7,10-15,10s-15,7-15,15s-4,15-10,15c-5,0-10,7-10,15s-7,15-15,15
		s-15,7-15,15c0,10-10,15-30,15s-30,5-30,15c0,8-7,15-15,15s-15,7-15,15s-7,15-15,15s-15,7-15,15c0,10-10,15-30,15c-16,0-30,5-30,11
		c0,14-25,39-39,39c-6,0-11,7-11,15s-7,15-15,15c-10,0-15,10-15,30s-5,30-15,30s-15,10-15,30s-5,30-15,30c-11,0-15,11-15,40
		s-4,40-15,40s-15,12-15,45s4,45,15,45s15,12,15,45s4,45,15,45c8,0,15,7,15,15c0,10,10,15,30,15c17,0,30,5,30,10c0,6,18,10,40,10
		c29,0,40,4,40,15s12,15,45,15s45-4,45-15c0-10,10-15,30-15c17,0,30-4,30-10s35-10,85-10s85,4,85,10s7,10,15,10s15,7,15,15
		s7,15,15,15s15,7,15,15s7,15,15,15s15,7,15,15c0,12,13,15,55,15s55,3,55,15c0,10,10,15,30,15s30,5,30,15c0,8,7,15,15,15s15,7,15,15
		s7,15,15,15c11,0,15,11,15,40c0,22,5,40,10,40c6,0,10,20,10,45s-4,45-10,45c-5,0-10,20-10,45c0,33-4,45-15,45c-9,0-15,9-15,25
		s-6,25-15,25c-8,0-15,7-15,15s-7,15-15,15s-15,7-15,15c0,11-12,15-45,15s-45-4-45-15c0-9-9-15-25-15c-22,0-25-4-25-40
		c0-29-4-40-15-40c-12,0-15-17-15-90s-3-90-15-90c-8,0-15,7-15,15c0,10-10,15-30,15c-29,0-30,2-30,45c0,33-4,45-15,45
		c-12,0-15,14-15,70s-3,70-15,70s-15,17-15,90s-3,90-15,90c-11,0-15,11-15,40c0,36-2,40-25,40c-16,0-25,6-25,15c0,8-7,15-15,15
		s-15,7-15,15c0,10-10,15-30,15s-30,5-30,15s-10,15-30,15s-30,5-30,15c0,9-9,15-25,15s-25,6-25,15c0,12-13,15-60,15
		c-33,0-60,4-60,10s-40,10-100,10c-82,0-100,3-100,15c0,13-21,15-130,15s-130-2-130-15c0-10-10-15-30-15c-16,0-30-4-30-10
		c0-5-7-10-15-10s-15-7-15-15c0-9-9-15-25-15s-25-6-25-15c0-10-10-15-30-15s-30-5-30-15s-10-15-30-15s-30-5-30-15s-10-15-30-15
		s-30-5-30-15c0-12-13-15-55-15s-55-3-55-15c0-13-24-15-160-15s-160,2-160,15c0,12-16,15-85,15s-85,3-85,15c0,11-12,15-45,15
		s-45,4-45,15c0,8-7,15-15,15s-15,7-15,15s-7,15-15,15s-15,7-15,15c0,9-9,15-25,15s-25,6-25,15c0,12-19,15-115,15
		c-70,0-115,4-115,10s-55,10-145,10h-145v-25c0-16-6-25-15-25c-8,0-15-7-15-15s-7-15-15-15s-15-7-15-15s-7-15-15-15
		c-10,0-15-10-15-30s-5-30-15-30c-11,0-15-11-15-40c0-22-4-40-10-40c-5,0-10-20-10-45s5-45,10-45c6,0,10-13,10-30c0-20,5-30,15-30
		c8,0,15-7,15-15s7-15,15-15s15-7,15-15s7-15,15-15s15-4,15-10s27-10,60-10c47,0,60-3,60-15c0-11,11-15,40-15s40-4,40-15
		s12-15,45-15s45-4,45-15c0-12,14-15,70-15s70,3,70,15c0,10,10,15,30,15s30,5,30,15c0,8,7,15,15,15s15,7,15,15c0,10,10,15,30,15
		c17,0,30,5,30,10c0,6,18,10,40,10c29,0,40,4,40,15c0,12,13,15,60,15s60-3,60-15c0-8,7-15,15-15c9,0,15-9,15-25c0-14,5-25,10-25
		c6,0,10-13,10-30c0-20,5-30,15-30c8,0,15-7,15-15s7-15,15-15s15-7,15-15s7-15,15-15s15-7,15-15s7-15,15-15s15-7,15-15
		c0-10,10-15,30-15c17,0,30-4,30-10s50-10,130-10s130,4,130,10s11,10,25,10c16,0,25,6,25,15c0,10,10,15,30,15s30,5,30,15
		c0,8,7,15,15,15s15,7,15,15s7,15,15,15s15,7,15,15s7,15,15,15s15,7,15,15c0,10,10,15,30,15s30,5,30,15c0,12,14,15,70,15s70-3,70-15
		c0-8,7-15,15-15c13,0,15-50,15-390s-2-390-15-390c-10,0-15-10-15-30s-5-30-15-30c-9,0-15-9-15-25s-6-25-15-25c-11,0-15-12-15-45
		s-4-45-15-45s-15-12-15-45s-4-45-15-45c-12,0-15-16-15-85s3-85,15-85c10,0,15-10,15-30s5-30,15-30c8,0,15-7,15-15s7-15,15-15
		c9,0,15-9,15-25s6-25,15-25c8,0,15-7,15-15s7-15,15-15s15-7,15-15s7-15,15-15s15-7,15-15s7-15,15-15s15-7,15-15c0-9,9-15,25-15
		s25-6,25-15c0-10,10-15,30-15s30-5,30-15s10-15,30-15s30-5,30-15c0-9,10-15,26-15c26,0,54-20,54-39c0-6,14-11,30-11
		c20,0,30-5,30-15c0-8,7-15,15-15s15-7,15-15s7-15,15-15s15-7,15-15c0-13-34-15-245-15s-245-2-245-15s-27-15-185-15s-185-2-185-15
		c0-12-19-15-115-15s-115-3-115-15c0-11-12-15-45-15c-25,0-45-4-45-10s-55-10-145-10s-145,4-145,10s-30,10-70,10s-70-4-70-10
		c0-5-13-10-30-10c-20,0-30-5-30-15s-10-15-30-15s-30-5-30-15c0-11-11-15-40-15s-40-4-40-15c0-10-10-15-30-15s-30-5-30-15
		s-10-15-30-15s-30-5-30-15s-10-15-30-15s-30-5-30-15c0-11-11-15-40-15s-40-4-40-15c0-10-10-15-30-15c-16,0-30-4-30-10
		c0-5-20-10-45-10c-33,0-45-4-45-15s-11-15-40-15s-40-4-40-15s-12-15-45-15s-45-4-45-15s-12-15-45-15s-45-4-45-15c0-12-13-15-55-15
		s-55-3-55-15c0-11-12-15-45-15s-45-4-45-15c0-9-9-15-25-15s-25-6-25-15c0-10-10-15-30-15c-16,0-30-4-30-10c0-5-7-10-15-10
		s-15-7-15-15s-7-15-15-15s-15-7-15-15s-7-15-15-15s-15-7-15-15s-7-15-15-15c-12,0-15-13-15-60s3-60,15-60c8,0,15-4,15-10
		c0-5,7-10,15-10s15-7,15-15c0-11,12-15,45-15s45-4,45-15c0-13,21-15,130-15s130,2,130,15c0,11,11,15,40,15s40,4,40,15
		c0,12,13,15,60,15c33,0,60,4,60,10s25,10,55,10c42,0,55,3,55,15c0,10,10,15,30,15s30,5,30,15c0,8,7,15,15,15s15,7,15,15s7,15,15,15
		s15,7,15,15s7,15,15,15s15,7,15,15c0,9,9,15,25,15s25,6,25,15c0,13,52,15,405,15s405,2,405,15s54,15,430,15s430-2,430-15
		c0-10,10-15,30-15s30-5,30-15s10-15,30-15s30-5,30-15s10-15,30-15s30-5,30-15c0-9,9-15,25-15s25-6,25-15c0-8,7-15,15-15s15-7,15-15
		s7-15,15-15c9,0,15-9,15-25s6-25,15-25c11,0,15-12,15-45s4-45,15-45c8,0,15-7,15-15s-7-15-15-15c-11,0-15-12-15-45s-4-45-15-45
		c-8,0-15-7-15-15s-7-15-15-15s-15-4-15-10c0-5-7-10-15-10s-15-7-15-15s-7-15-15-15s-15-7-15-15s-4-15-10-15c-5,0-10-7-10-15
		s-7-15-15-15s-15-7-15-15c0-10-10-15-30-15s-30-5-30-15c0-8-7-15-15-15s-15-7-15-15c0-10-10-15-30-15s-30-5-30-15c0-9-9-15-25-15
		c-14,0-25-4-25-10s-42-10-105-10c-87,0-105-3-105-15c0-13-24-15-155-15s-155-2-155-15s-63-15-505-15s-505-2-505-15
		c0-11-12-15-45-15s-45-4-45-15c0-9-9-15-25-15s-25-6-25-15c0-8-7-15-15-15c-10,0-15-10-15-30s-5-30-15-30c-9,0-15-9-15-25
		s6-25,15-25c11,0,15-12,15-45s4-45,15-45c10,0,15-10,15-30s5-30,15-30c9,0,15-9,15-25c0-20,5-25,25-25c16,0,25-6,25-15
		c0-10,10-15,30-15s30-5,30-15s10-15,30-15s30-5,30-15c0-8,7-15,15-15s15-7,15-15s7-15,15-15s15-7,15-15s5-15,10-15c6,0,10-7,10-15
		c0-13,34-15,245-15s245-2,245-15c0-12,15-15,75-15c43,0,75-4,75-10s102-10,285-10c247,0,285-2,285-15s21-15,130-15s130-2,130-15
		c0-11,12-15,45-15s45-4,45-15c0-10,10-15,30-15s30-5,30-15c0-9,9-15,25-15s25-6,25-15c0-11,12-15,45-15s45-4,45-15
		c0-10,10-15,30-15s30-5,30-15c0-8,7-15,15-15s15-7,15-15s7-15,15-15s15-4,15-10c0-5,11-10,25-10c16,0,25-6,25-15c0-13,23-15,145-15
		s145,2,145,15c0,11,12,15,45,15s45-4,45-15s11-15,40-15s40-4,40-15c0-10,10-15,30-15s30-5,30-15c0-8,7-15,15-15s15-7,15-15
		s7-15,15-15s15-7,15-15s7-15,15-15c11,0,15-11,15-40s4-40,15-40c13,0,15-24,15-160s-2-160-15-160c-12,0-15-19-15-115v-115h-100
		c-82,0-100-3-100-15s-15-15-75-15s-75-3-75-15c0-11-11-15-40-15s-40-4-40-15c0-10-10-15-30-15s-30-5-30-15c0-8-7-15-15-15
		s-15-7-15-15s-7-15-15-15c-12,0-15-19-15-115s-3-115-15-115c-9,0-15-9-15-25v-25h-115c-96,0-115,3-115,15s-19,15-115,15h-115v-90
		v-90h-30c-20,0-30-5-30-15c0-12-16-15-85-15s-85,3-85,15c0,8-7,15-15,15c-11,0-15,12-15,45s4,45,15,45c8,0,15,7,15,15s-7,15-15,15
		s-15,7-15,15c0,12-16,15-85,15h-85v-45c0-33-4-45-15-45c-10,0-15-10-15-30s-5-30-15-30c-9,0-15-9-15-25s-6-25-15-25
		c-8,0-15-7-15-15s-7-15-15-15s-15-7-15-15c0-11-11-15-40-15s-40-4-40-15c0-12-13-15-60-15s-60,3-60,15s-19,15-115,15s-115,3-115,15
		s-18,15-100,15s-100,3-100,15s-14,15-70,15c-40,0-70,4-70,10s-27,10-60,10c-47,0-60,3-60,15s-13,15-55,15s-55,3-55,15s-15,15-75,15
		s-75,3-75,15s-13,15-55,15s-55-3-55-15s-18-15-100-15s-100,3-100,15c0,11-12,15-45,15s-45,4-45,15s-12,15-45,15s-45,4-45,15
		s-11,15-40,15s-40,4-40,15c0,10-10,15-30,15s-30,5-30,15s-10,15-30,15c-16,0-30,5-30,10c0,6-13,10-30,10c-20,0-30,5-30,15
		c0,8-4,15-10,15c-5,0-10,7-10,15c0,10-10,15-30,15s-30,5-30,15c0,8-7,15-15,15s-15,7-15,15s-7,15-15,15s-15,7-15,15s-7,15-15,15
		s-15,7-15,15s-7,15-15,15s-15,7-15,15s-5,15-11,15c-14,0-39,25-39,39c0,6-7,11-15,11c-10,0-15,10-15,30s-5,30-15,30
		c-8,0-15,7-15,15s-7,15-15,15s-15,7-15,15s-7,15-15,15c-10,0-15,10-15,30s-5,30-15,30c-8,0-15,7-15,15s-7,15-15,15c-9,0-15,9-15,25
		s-6,25-15,25c-10,0-15,10-15,30c0,17-4,30-10,30c-5,0-10,7-10,15s-7,15-15,15s-15-7-15-15c0-12-15-15-75-15h-75v115
		c0,96-3,115-15,115c-8,0-15,7-15,15s-4,15-10,15c-5,0-10,7-10,15s-7,15-15,15s-15,7-15,15c0,10-10,15-30,15s-30,5-30,15
		c0,8-7,15-15,15c-12,0-15,13-15,55s-3,55-15,55c-8,0-15,7-15,15c0,12-16,15-85,15h-85v-30c0-20-5-30-15-30c-12,0-15-16-15-85
		s-3-85-15-85s-15-13-15-60s-3-60-15-60c-9,0-15-9-15-25s-6-25-15-25c-8,0-15-7-15-15s-7-15-15-15c-10,0-15-10-15-30
		c0-28-2-30-40-30c-29,0-40-4-40-15c0-12-15-15-75-15s-75,3-75,15c0,11-11,15-40,15s-40,4-40,15c0,10-10,15-30,15s-30,5-30,15
		c0,8-7,15-15,15s-15,7-15,15s-7,15-15,15c-12,0-15,19-15,115s3,115,15,115s15,16,15,85v85h-30c-20,0-30,5-30,15c0,8,7,15,15,15
		s15,7,15,15s7,15,15,15s15,7,15,15s7,15,15,15s15,5,15,10c0,6,7,10,15,10c12,0,15,17,15,90s3,90,15,90s15,13,15,55s-3,55-15,55
		s-15,13-15,60v60h-45c-33,0-45-4-45-15c0-9-9-15-25-15h-25v130c0,109-2,130-15,130c-8,0-15,7-15,15c0,13-21,15-130,15h-130v70v70
		h115c96,0,115,3,115,15c0,10,10,15,30,15c27,0,30,3,30,30c0,17,5,30,10,30c6,0,10,5,10,11c0,14-25,39-39,39c-6,0-11,7-11,15
		c0,10-10,15-30,15s-30,5-30,15c0,11-12,15-45,15s-45,4-45,15c0,12-18,15-100,15h-100v60c0,47-3,60-15,60s-15,14-15,70s-3,70-15,70
		c-8,0-15,7-15,15c0,9-9,15-25,15s-25,6-25,15c0,12-13,15-60,15h-60v-30c0-20-5-30-15-30s-15-10-15-30s-5-30-15-30c-8,0-15-7-15-15
		s-7-15-15-15c-10,0-15,10-15,30c0,17-4,30-10,30s-10,35-10,85c0,69-3,85-15,85c-13,0-15,24-15,160s-2,160-15,160c-8,0-15,7-15,15
		s-7,15-15,15c-10,0-15,10-15,30c0,27-3,30-30,30c-20,0-30,5-30,15c0,8-7,15-15,15s-15,5-15,10c0,6-7,10-15,10c-12,0-15,19-15,115
		v115h75c60,0,75,3,75,15c0,10,10,15,30,15s30,5,30,15c0,8,5,15,10,15c6,0,10,7,10,15s7,15,15,15c10,0,15,10,15,30s-5,30-15,30
		c-8,0-15,7-15,15c0,11-11,15-40,15s-40,4-40,15s-12,15-45,15h-45v55c0,42-3,55-15,55c-8,0-15,7-15,15s7,15,15,15c12,0,15,14,15,70
		s-3,70-15,70c-11,0-15,12-15,45s-4,45-15,45c-12,0-15,13-15,60c0,33-4,60-10,60c-5,0-10,11-10,25c0,16-6,25-15,25
		c-11,0-15,12-15,45s-4,45-15,45s-15,12-15,45s-4,45-15,45s-15,11-15,40s-4,40-15,40s-15,12-15,45s-4,45-15,45s-15,11-15,40
		s-4,40-15,40s-15,12-15,45s-4,45-15,45s-15,12-15,45c0,25-4,45-10,45c-5,0-10,25-10,55c0,42-3,55-15,55s-15,15-15,75s-3,75-15,75
		s-15,13-15,55s-3,55-15,55s-15,16-15,85s-3,85-15,85s-15,17-15,90s-3,90-15,90s-15,19-15,115s-3,115-15,115c-13,0-15,24-15,155
		s-2,155-15,155s-15,68-15,550s2,550,15,550c12,0,15,19,15,115s3,115,15,115s15,16,15,85s3,85,15,85s15,14,15,70s3,70,15,70
		c11,0,15,12,15,45s4,45,15,45s15,12,15,45s4,45,15,45c9,0,15,9,15,25s6,25,15,25c10,0,15,10,15,30c0,17,5,30,10,30
		c6,0,10,50,10,130c0,109,2,130,15,130s15,24,15,160s2,160,15,160s15,24,15,155s2,155,15,155s15,23,15,145s2,145,15,145
		s15,26,15,175s2,175,15,175s15,23,15,145s2,145,15,145s15,24,15,155s-2,155-15,155c-8,0-15,7-15,15s-7,15-15,15s-15,7-15,15
		s-7,15-15,15s-15,7-15,15s-7,15-15,15s-15,7-15,15c0,10-10,15-30,15h-30v85c0,69,3,85,15,85c11,0,15,12,15,45s4,45,15,45
		c9,0,15,9,15,25s6,25,15,25c10,0,15,10,15,30s5,30,15,30s15,10,15,30s5,30,15,30c8,0,15,7,15,15s7,15,15,15c10,0,15,10,15,30
		c0,17,5,30,11,30c19,0,39,28,39,54c0,16,6,26,15,26c8,0,15,7,15,15s7,15,15,15c10,0,15,10,15,30s5,30,15,30c8,0,15,7,15,15
		s7,15,15,15s15,7,15,15s7,15,15,15s15,5,15,10c0,6,7,10,15,10c10,0,15,10,15,30s5,30,15,30c8,0,15,7,15,15s5,15,10,15
		c6,0,10,7,10,15s7,15,15,15s15,7,15,15s7,15,15,15s15,7,15,15s7,15,15,15s15,7,15,15s7,15,15,15s15,5,15,10c0,6,7,10,15,10
		s15,7,15,15s7,15,15,15s15,7,15,15s7,15,15,15s15,7,15,15s5,15,10,15c6,0,10,7,10,15s7,15,15,15s15,7,15,15s7,15,15,15s15,7,15,15
		s7,15,15,15s15,7,15,15s7,15,15,15s15,5,15,10c0,6,7,10,15,10s15,7,15,15c0,10,10,15,30,15s30,5,30,15c0,9,9,15,25,15s25,6,25,15
		c0,10,10,15,30,15s30,5,30,15s10,15,30,15s30,5,30,15s10,15,30,15s30,5,30,15c0,9,9,15,25,15s25,6,25,15c0,10,10,15,30,15
		s30,5,30,15s10,15,30,15c17,0,30,5,30,10c0,6,20,10,45,10c33,0,45,4,45,15c0,9,9,15,25,15s25,6,25,15c0,10,10,15,30,15s30,5,30,15
		c0,11,12,15,45,15s45,4,45,15s11,15,40,15s40,4,40,15s12,15,45,15s45,4,45,15s12,15,45,15s45,4,45,15s11,15,40,15c22,0,40,5,40,10
		c0,6,27,10,60,10c47,0,60,3,60,15s13,15,55,15s55,3,55,15s15,15,75,15s75,3,75,15s14,15,70,15s70,3,70,15s19,15,115,15
		s115,3,115,15c0,13,24,15,160,15s160,2,160,15s59,15,475,15S13140,27798,13140,27785z M15790,18285c0-11,11-15,40-15s40-4,40-15
		c0-8,7-15,15-15s15-7,15-15s7-15,15-15s15-7,15-15s7-15,15-15c9,0,15-9,15-25c0-25-1-25-85-25c-69,0-85-3-85-15s-15-15-75-15
		s-75,3-75,15c0,8-7,15-15,15s-15,5-15,10c0,6-7,10-15,10c-11,0-15,12-15,45s4,45,15,45c8,0,15,7,15,15c0,10,10,15,30,15s30,5,30,15
		c0,12,13,15,60,15S15790,18297,15790,18285z M11840,12415c0-12,13-15,60-15s60-3,60-15s16-15,85-15s85-3,85-15s16-15,85-15
		s85-3,85-15c0-11,12-15,45-15s45-4,45-15s12-15,45-15c25,0,45-5,45-11c0-19,28-39,54-39c16,0,26-6,26-15c0-8,7-15,15-15s15-7,15-15
		s7-15,15-15s15-7,15-15s7-15,15-15c10,0,15-10,15-30s5-30,15-30c8,0,15-7,15-15s7-15,15-15s15-5,15-11c0-19,28-39,54-39
		c16,0,26-6,26-15c0-10,10-15,30-15s30-5,30-15c0-8,7-15,15-15s15-7,15-15s7-15,15-15s15-7,15-15c0-9,9-15,25-15s25-6,25-15
		c0-8,7-15,15-15s15-7,15-15c0-10,10-15,30-15s30-5,30-15c0-8,7-15,15-15s15-4,15-10c0-5,7-10,15-10s15-7,15-15s7-15,15-15
		s15-7,15-15c0-9,9-15,25-15s25-6,25-15c0-8,7-15,15-15s15-7,15-15s7-15,15-15s15-7,15-15c0-10,10-15,30-15s30-5,30-15
		c0-8,7-15,15-15s15-7,15-15s7-15,15-15s15-7,15-15c0-9,9-15,25-15c14,0,25-4,25-10c0-5,7-10,15-10s15-7,15-15c0-10,10-15,30-15
		s30-5,30-15c0-8,7-15,15-15s15-7,15-15c0-10,10-15,30-15s30-5,30-15s10-15,30-15s30-5,30-15c0-8,5-15,10-15c6,0,10-7,10-15
		c0-11,12-15,45-15h45v60c0,47,3,60,15,60s15,16,15,85s3,85,15,85s15,18,15,100s-3,100-15,100c-13,0-15,21-15,130s2,130,15,130
		c8,0,15-7,15-15s7-15,15-15c9,0,15-9,15-25s6-25,15-25c10,0,15-10,15-30c0-16,5-30,10-30c6,0,10-13,10-30c0-20,5-30,15-30
		c11,0,15-12,15-45s4-45,15-45s15-11,15-40s4-40,15-40c12,0,15-13,15-60s3-60,15-60s15-13,15-55s3-55,15-55s15-15,15-75s3-75,15-75
		s15-13,15-55s3-55,15-55c8,0,15-7,15-15c0-9,9-15,25-15s25-6,25-15c0-8,7-15,15-15s15-7,15-15c0-10,10-15,30-15s30-5,30-15
		c0-8,7-15,15-15s15-7,15-15s7-15,15-15s15-4,15-10c0-5,7-10,15-10s15-7,15-15s5-15,10-15c6,0,10-13,10-30c0-20,5-30,15-30
		c13,0,15-27,15-185s2-185,15-185c10,0,15-10,15-30v-30h-85c-69,0-85,3-85,15c0,10-10,15-30,15s-30,5-30,15c0,8-7,15-15,15
		s-15,5-15,10c0,6-7,10-15,10s-15,7-15,15s-4,15-10,15c-5,0-10,7-10,15s-7,15-15,15s-15,7-15,15c0,10-10,15-30,15s-30,5-30,15
		c0,8-7,15-15,15s-15,7-15,15c0,10-10,15-30,15s-30,5-30,15c0,8-7,15-15,15s-15,7-15,15c0,9-9,15-25,15c-14,0-25,5-25,10
		c0,6-7,10-15,10s-15,7-15,15c0,10-10,15-30,15s-30,5-30,15c0,8-7,15-15,15s-15,7-15,15c0,10-10,15-30,15s-30,5-30,15
		c0,9-9,15-25,15s-25,6-25,15c0,8-7,15-15,15s-15,7-15,15c0,10-10,15-30,15s-30,5-30,15c0,8-7,15-15,15s-15,5-15,10c0,6-13,10-30,10
		c-20,0-30,5-30,15c0,9-9,15-25,15s-25,6-25,15c0,8-7,15-15,15s-15,7-15,15c0,10-10,15-30,15s-30,5-30,15s-10,15-30,15s-30,5-30,15
		s-10,15-30,15s-30,5-30,15c0,8-4,15-10,15c-5,0-10,7-10,15c0,10-10,15-30,15c-16,0-30,5-30,10c0,6-13,10-30,10c-20,0-30,5-30,15
		c0,8-7,15-15,15s-15,7-15,15c0,10-10,15-30,15s-30,5-30,15c0,9-9,15-25,15s-25,6-25,15c0,8-7,15-15,15s-15,7-15,15
		c0,10-10,15-30,15s-30,5-30,15s-10,15-30,15s-30,5-30,15c0,8-7,15-15,15s-15,5-15,10c0,6-11,10-25,10c-16,0-25,6-25,15
		c0,8-7,15-15,15s-15,7-15,15c0,10-10,15-30,15s-30,5-30,15s-10,15-30,15s-30,5-30,15c0,8-7,15-15,15s-15,7-15,15c0,9-9,15-25,15
		s-25,6-25,15c0,8-7,15-15,15s-15,7-15,15c0,10-10,15-30,15s-30,5-30,15s-10,15-30,15c-16,0-30,5-30,10c0,6-7,10-15,10s-15,7-15,15
		c0,9-9,15-25,15s-25,6-25,15c0,8-7,15-15,15s-15,7-15,15c0,10-10,15-30,15s-30,5-30,15c0,8-7,15-15,15s-15,7-15,15s-7,15-15,15
		s-15,7-15,15c0,10-10,15-30,15c-16,0-30,5-30,11c0,19-28,39-54,39c-16,0-26,6-26,15c0,8-7,15-15,15s-15,7-15,15s-7,15-15,15
		s-15,7-15,15c0,10-10,15-30,15s-30,5-30,15c0,8-7,15-15,15s-15,7-15,15s-4,15-10,15c-5,0-10,7-10,15s-7,15-15,15s-15,7-15,15
		c0,10-10,15-30,15c-16,0-30,5-30,10c0,6-7,10-15,10c-10,0-15,10-15,30s-5,30-15,30c-11,0-15,12-15,45c0,43,1,45,30,45
		c20,0,30,5,30,15c0,12,16,15,85,15S11840,12427,11840,12415z"/>
	<path d="M10580,25290c0-20-5-30-15-30c-8,0-15-4-15-10s-37-10-90-10s-90,4-90,10s-35,10-85,10s-85-4-85-10c0-5-20-10-45-10
		c-33,0-45-4-45-15c0-9-9-15-25-15c-21,0-25-5-25-30c0-20-5-30-15-30c-11,0-15-12-15-45s-4-45-15-45c-10,0-15-10-15-30s-5-30-15-30
		c-8,0-15-4-15-10c0-5-13-10-30-10c-20,0-30-5-30-15c0-12-14-15-70-15h-70v-30c0-20-5-30-15-30c-11,0-15-12-15-45s4-45,15-45
		c9,0,15-9,15-25s6-25,15-25c10,0,15-10,15-30s5-30,15-30c13,0,15-23,15-145s-2-145-15-145c-11,0-15-12-15-45s4-45,15-45
		c9,0,15-9,15-25s6-25,15-25c8,0,15-7,15-15c0-11,11-15,40-15s40,4,40,15c0,8,7,15,15,15c9,0,15,9,15,25c0,25,1,25,85,25
		c69,0,85,3,85,15c0,8,7,15,15,15c12,0,15,18,15,100s3,100,15,100c8,0,15,7,15,15c0,10,10,15,30,15s30-5,30-15s10-15,30-15
		c17,0,30-4,30-10s30-10,70-10s70,4,70,10s30,10,70,10c56,0,70,3,70,15c0,13,28,15,190,15s190-2,190-15c0-11,11-15,40-15h40v-70
		c0-40-4-70-10-70c-5,0-10-13-10-30c0-20-5-30-15-30c-8,0-15-7-15-15s-7-15-15-15s-15-4-15-10c0-5-13-10-30-10c-20,0-30-5-30-15
		c0-12-14-15-70-15s-70-3-70-15s-13-15-60-15s-60-3-60-15c0-11-11-15-40-15s-40-4-40-15c0-10-10-15-30-15s-30-5-30-15s-10-15-30-15
		s-30-5-30-15s-10-15-30-15s-30-5-30-15c0-9-9-15-25-15c-14,0-25-4-25-10c0-5-7-10-15-10s-15-7-15-15c0-10-10-15-30-15s-30-5-30-15
		c0-8-7-15-15-15s-15-7-15-15s-7-15-15-15s-15-7-15-15s-7-15-15-15s-15-7-15-15s-7-15-15-15s-15-7-15-15s-7-15-15-15s-15-7-15-15
		s-4-15-10-15c-5,0-10-7-10-15s-7-15-15-15s-15-4-15-10c0-5-7-10-15-10s-15-7-15-15s-7-15-15-15s-15-7-15-15s-7-15-15-15
		c-10,0-15-10-15-30s-5-30-15-30c-8,0-15-7-15-15s-7-15-15-15c-10,0-15-10-15-30s-5-30-15-30c-12,0-15-13-15-55c0-30-4-55-10-55
		c-5,0-10-7-10-15s5-15,10-15c6,0,10-20,10-45c0-33,4-45,15-45c8,0,15-4,15-10c0-5,7-10,15-10s15-7,15-15c0-11,12-15,45-15
		s45-4,45-15c0-13,40-15,300-15s300,2,300,15c0,8,7,15,15,15c9,0,15,9,15,25s6,25,15,25c10,0,15,10,15,30s5,30,15,30
		c11,0,15,12,15,45s4,45,15,45s15,11,15,40s4,40,15,40c10,0,15,10,15,30s5,30,15,30s15,10,15,30c0,25,4,30,25,30c16,0,25,6,25,15
		c0,8,7,15,15,15s15,7,15,15c0,11,12,15,45,15s45-4,45-15c0-8,7-15,15-15s15-7,15-15c0-9,9-15,25-15s25-6,25-15c0-8,7-15,15-15
		s15-7,15-15c0-10,10-15,30-15s30-5,30-15s10-15,30-15s30-5,30-15s10-15,30-15c17,0,30-4,30-10c0-5,18-10,40-10c29,0,40-4,40-15
		c0-12,17-15,90-15s90,3,90,15c0,9,9,15,25,15c14,0,25,5,25,10c0,6,14,10,30,10c20,0,30,5,30,15c0,8,7,15,15,15s15,7,15,15
		s7,15,15,15s15,7,15,15s7,15,15,15s15,7,15,15s7,15,15,15c10,0,15,10,15,30c0,17,5,30,10,30c6,0,10,7,10,15s7,15,15,15
		c12,0,15,18,15,100v100h115c96,0,115-3,115-15c0-8,7-15,15-15c10,0,15-10,15-30s5-30,15-30c8,0,15-7,15-15s7-15,15-15s15-7,15-15
		s7-15,15-15s15-7,15-15s7-15,15-15s15-4,15-10c0-5,11-10,25-10c16,0,25-6,25-15c0-10,10-15,30-15s30-5,30-15c0-13,24-15,160-15
		s160,2,160,15c0,8,7,15,15,15s15,7,15,15s7,15,15,15c9,0,15,9,15,25v25h115c96,0,115,3,115,15c0,11,11,15,40,15s40,4,40,15
		c0,8,7,15,15,15c10,0,15,10,15,30s5,30,15,30c8,0,15,7,15,15s7,15,15,15s15,7,15,15c0,10,10,15,30,15s30,5,30,15c0,8,7,15,15,15
		c13,0,15,26,15,170c0,107,4,170,10,170s10,40,10,100s-4,100-10,100c-5,0-10,14-10,30c0,20-5,30-15,30s-15,10-15,30s-5,30-15,30
		c-9,0-15,9-15,25s-6,25-15,25c-8,0-15,7-15,15s-7,15-15,15s-15,7-15,15s-7,15-15,15s-15,7-15,15s-7,15-15,15s-15,7-15,15
		s-7,15-15,15s-15,7-15,15s-4,15-10,15c-5,0-10,7-10,15c0,10-10,15-30,15s-30,5-30,15c0,8-7,15-15,15s-15,5-15,10c0,6-13,10-30,10
		c-20,0-30,5-30,15s-10,15-30,15s-30,5-30,15c0,11-11,15-40,15s-40,4-40,15s-12,15-45,15s-45,4-45,15s-11,15-40,15c-38,0-40-2-40-30
		c0-27-3-30-30-30c-20,0-30,5-30,15c0,12-13,15-60,15s-60,3-60,15c0,13-26,15-170,15s-170-2-170-15s-24-15-160-15s-160,2-160,15
		c0,12-14,15-70,15s-70,3-70,15c0,10-10,15-30,15s-30-5-30-15c0-12-14-15-70-15s-70,3-70,15c0,10-10,15-30,15s-30-5-30-15
		s-10-15-30-15s-30,5-30,15c0,8-7,15-15,15c-10,0-15,10-15,30s-5,30-15,30c-8,0-15-7-15-15c0-12-14-15-70-15s-70,3-70,15
		c0,8-7,15-15,15s-15,7-15,15s-7,15-15,15s-15-7-15-15s-7-15-15-15s-15-7-15-15c0-10-10-15-30-15s-30,5-30,15c0,8-4,15-10,15
		c-5,0-10,7-10,15c0,12-15,15-75,15c-73,0-75,1-75,25c0,16-6,25-15,25c-8,0-15,7-15,15c0,9-9,15-25,15
		C10584,25320,10580,25315,10580,25290z M11470,24040c0-29-4-40-15-40c-8,0-15-7-15-15s-7-15-15-15s-15-7-15-15c0-10-10-15-30-15
		s-30,5-30,15c0,8-7,15-15,15c-12,0-15,13-15,55v55h75h75V24040z"/>
	<path d="M14810,21965c0-8-7-15-15-15s-15-4-15-10c0-5-7-10-15-10c-12,0-15-13-15-60s3-60,15-60c8,0,15-7,15-15c0-11,11-15,40-15
		s40-4,40-15c0-12,15-15,75-15s75,3,75,15c0,10,10,15,30,15h30v60c0,47-3,60-15,60c-8,0-15,7-15,15s-7,15-15,15s-15,5-15,10
		c0,6-13,10-30,10c-20,0-30,5-30,15c0,12-14,15-70,15S14810,21977,14810,21965z"/>
	<path d="M12480,20700v-70h55c42,0,55,3,55,15s13,15,60,15h60v45c0,43-1,45-30,45c-16,0-30,5-30,10c0,6-35,10-85,10h-85V20700z"/>
	<path d="M13020,20270c0-5-7-10-15-10c-11,0-15-12-15-45s-4-45-15-45s-15-12-15-45c0-25-4-45-10-45s-10-30-10-70s4-70,10-70
		s10-7,10-15s7-15,15-15s15-7,15-15c0-10,10-15,30-15s30,5,30,15c0,11,12,15,45,15h45v115c0,96-3,115-15,115c-10,0-15,10-15,30
		s-5,30-15,30s-15,10-15,30s-5,30-15,30c-8,0-15,5-15,10c0,6-7,10-15,10S13020,20276,13020,20270z"/>
	<path d="M12070,19320c0-5-13-10-30-10c-20,0-30-5-30-15c0-8-4-15-10-15c-5,0-10-7-10-15s-7-15-15-15c-13,0-15-21-15-130
		s-2-130-15-130c-12,0-15-18-15-100s3-100,15-100c8,0,15-7,15-15c0-9,9-15,25-15s25-6,25-15c0-8,7-15,15-15s15,7,15,15
		c0,10,10,15,30,15s30,5,30,15c0,8,7,15,15,15c11,0,15,11,15,40s4,40,15,40c13,0,15,21,15,130s2,130,15,130c12,0,15,17,15,90
		s-3,90-15,90c-8,0-15,5-15,10c0,6-20,10-45,10S12070,19326,12070,19320z"/>
	<path d="M9740,19205c0-33-4-45-15-45c-10,0-15-10-15-30s-5-30-15-30c-12,0-15-13-15-55s-3-55-15-55c-13,0-15-21-15-130
		s2-130,15-130c12,0,15-13,15-55s3-55,15-55c10,0,15-10,15-30s5-30,15-30c8,0,15-7,15-15s7-15,15-15s15-7,15-15c0-10,10-15,30-15
		s30,5,30,15c0,8,7,15,15,15c10,0,15,10,15,30c0,17,5,30,10,30c6,0,10,35,10,85c0,69,3,85,15,85c8,0,15,7,15,15s-7,15-15,15
		c-13,0-15,26-15,170c0,107-4,170-10,170c-5,0-10,20-10,45c0,33-4,45-15,45c-8,0-15,7-15,15c0,11-12,15-45,15h-45V19205z"/>
	<path d="M11380,19090c0-5-7-10-15-10s-15-7-15-15s-7-15-15-15s-15-7-15-15s-4-15-10-15c-5,0-10-7-10-15s-7-15-15-15s-15-7-15-15
		s-7-15-15-15s-15-7-15-15s-7-15-15-15c-10,0-15-10-15-30s-5-30-15-30c-8,0-15-4-15-10c0-5-7-10-15-10c-10,0-15-10-15-30
		s-5-30-15-30c-8,0-15-7-15-15s-7-15-15-15c-10,0-15-10-15-30s-5-30-15-30s-15-10-15-30c0-16-4-30-10-30c-5,0-10-18-10-40
		c0-29-4-40-15-40s-15-12-15-45s-4-45-15-45c-12,0-15-13-15-55s-3-55-15-55c-13,0-15-37-15-275s2-275,15-275c12,0,15-13,15-60
		s3-60,15-60c9,0,15-9,15-25c0-20,5-25,25-25c16,0,25-6,25-15c0-12,13-15,60-15s60,3,60,15c0,10,10,15,30,15s30,5,30,15
		c0,8,7,15,15,15s15,5,15,10c0,6,7,10,15,10c10,0,15,10,15,30c0,17,5,30,10,30c6,0,10,14,10,30c0,20,5,30,15,30c12,0,15,19,15,115
		s3,115,15,115c13,0,15,24,15,160s2,160,15,160s15,29,15,200s2,200,15,200c10,0,15,10,15,30c0,27,3,30,30,30c20,0,30-5,30-15
		c0-12,16-15,85-15s85,3,85,15c0,8,7,15,15,15c11,0,15,11,15,40s4,40,15,40c12,0,15,18,15,100v100h-175
		C11445,19100,11380,19096,11380,19090z"/>
	<path d="M5190,15405c0-8-7-15-15-15s-15-7-15-15s-4-15-10-15c-5,0-10-7-10-15s-7-15-15-15s-15-4-15-10c0-5-7-10-15-10s-15-7-15-15
		s-7-15-15-15s-15-7-15-15s-7-15-15-15s-15-7-15-15s-7-15-15-15s-15-7-15-15s-7-15-15-15s-15-7-15-15s-7-15-15-15c-10,0-15-10-15-30
		c0-16-4-30-10-30c-5,0-10-11-10-25c0-16-6-25-15-25c-10,0-15-10-15-30s-5-30-15-30s-15-10-15-30v-30h70c56,0,70,3,70,15
		c0,11,12,15,45,15s45,4,45,15c0,10,10,15,30,15s30,5,30,15c0,8,5,15,10,15c6,0,10,7,10,15s7,15,15,15s15,7,15,15c0,10,10,15,30,15
		c17,0,30,5,30,10c0,6,14,10,30,10c20,0,30,5,30,15c0,8,7,15,15,15s15,7,15,15s7,15,15,15s15,7,15,15s5,15,10,15c6,0,10,7,10,15
		s7,15,15,15c11,0,15,12,15,45c0,25-5,45-11,45c-14,0-39,25-39,39c0,6-7,11-15,11s-15,7-15,15c0,10-10,15-30,15s-30,5-30,15
		c0,11-12,15-45,15S5190,15416,5190,15405z"/>
	<path d="M6920,13650c0-5-13-10-30-10c-27,0-30-3-30-30c0-20-5-30-15-30s-15-10-15-30c0-16-4-30-10-30c-5,0-10-7-10-15s-7-15-15-15
		s-15-7-15-15s-7-15-15-15s-15-7-15-15s-7-15-15-15c-12,0-15-16-15-85s3-85,15-85s15-18,15-100s-3-100-15-100c-10,0-15-10-15-30
		s-5-30-15-30c-9,0-15-9-15-25s-6-25-15-25c-10,0-15-10-15-30s-5-30-15-30c-11,0-15-12-15-45s4-45,15-45c8,0,15-7,15-15
		c0-12,15-15,75-15s75,3,75,15c0,9,9,15,25,15s25,6,25,15c0,8,7,15,15,15s15,7,15,15s7,15,15,15s15,7,15,15s7,15,15,15s15,7,15,15
		c0,10,10,15,30,15c25,0,30,4,30,25c0,16,6,25,15,25c8,0,15,7,15,15s5,15,10,15c6,0,10,7,10,15s7,15,15,15s15,7,15,15
		c0,10,10,15,30,15s30,5,30,15c0,8,7,15,15,15c10,0,15,10,15,30s5,30,15,30c8,0,15,7,15,15s7,15,15,15c9,0,15,9,15,25s6,25,15,25
		c8,0,15,7,15,15s-7,15-15,15s-15,7-15,15s-7,15-15,15s-15,7-15,15c0,10-10,15-30,15s-30-5-30-15s-10-15-30-15s-30-5-30-15
		c0-9-9-15-25-15s-25-6-25-15c0-10-10-15-30-15s-30-5-30-15c0-8-7-15-15-15s-15-4-15-10c0-5-13-10-30-10c-16,0-30,5-30,10
		c0,6-7,10-15,10c-11,0-15,12-15,45s4,45,15,45c8,0,15,7,15,15s7,15,15,15s15,7,15,15s7,15,15,15s15,7,15,15s7,15,15,15s15,7,15,15
		s7,15,15,15c9,0,15,9,15,25c0,20,5,25,25,25c16,0,25,6,25,15c0,8,7,15,15,15c12,0,15,13,15,60c0,57-1,60-25,60c-16,0-25,6-25,15
		c0,11-12,15-45,15c-25,0-45,5-45,10c0,6-7,10-15,10S6920,13656,6920,13650z"/>
	<path d="M6230,13475c0-10-10-15-30-15s-30-5-30-15c0-11-11-15-40-15c-22,0-40-4-40-10c0-5-13-10-30-10c-20,0-30-5-30-15
		c0-11-12-15-45-15s-45-4-45-15c0-10-10-15-30-15s-30-5-30-15c0-11-11-15-40-15s-40-4-40-15s-12-15-45-15s-45-4-45-15
		c0-10-10-15-30-15s-30-5-30-15c0-11-11-15-40-15s-40-4-40-15c0-10-10-15-30-15c-16,0-30-4-30-10c0-5-13-10-30-10c-20,0-30-5-30-15
		s-10-15-30-15s-30-5-30-15c0-9-9-15-25-15s-25-6-25-15c0-10-10-15-30-15s-30-5-30-15s-10-15-30-15s-30-5-30-15c0-8-7-15-15-15
		s-15-7-15-15c0-9-9-15-25-15c-24,0-25-3-25-55v-55h55c42,0,55,3,55,15s14,15,70,15s70,3,70,15c0,10,10,15,30,15c17,0,30,5,30,10
		c0,6,20,10,45,10c33,0,45,4,45,15c0,10,10,15,30,15s30,5,30,15c0,8,5,15,10,15c6,0,10,7,10,15c0,10,10,15,30,15s30,5,30,15
		s10,15,30,15s30,5,30,15s10,15,30,15s30-5,30-15c0-8,7-15,15-15c11,0,15-12,15-45s-4-45-15-45c-8,0-15-7-15-15c0-10-10-15-30-15
		c-16,0-30-4-30-10c0-5-13-10-30-10c-20,0-30-5-30-15c0-8-7-15-15-15s-15-7-15-15s-7-15-15-15c-10,0-15-10-15-30c0-27,3-30,30-30
		c20,0,30-5,30-15c0-12,13-15,60-15s60,3,60,15s14,15,70,15s70,3,70,15c0,11,12,15,45,15s45,4,45,15c0,10,10,15,30,15s30,5,30,15
		c0,8,5,15,10,15c6,0,10,7,10,15c0,10,10,15,30,15c17,0,30,5,30,10c0,6,7,10,15,10c10,0,15,10,15,30s5,30,15,30c12,0,15,13,15,60
		s3,60,15,60c8,0,15,7,15,15s7,15,15,15s15,5,15,10c0,6,25,10,55,10h55v115c0,96-3,115-15,115c-8,0-15,7-15,15s-7,15-15,15
		s-15,7-15,15c0,12-13,15-55,15S6230,13487,6230,13475z"/>
	<path d="M7150,11820c0-20-5-30-15-30c-8,0-15-4-15-10c0-5-7-10-15-10s-15-7-15-15s-7-15-15-15s-15-7-15-15s-4-15-10-15
		c-5,0-10-13-10-30c0-20-5-30-15-30s-15-10-15-30s-5-30-15-30s-15-10-15-30s-5-30-15-30c-9,0-15-9-15-25s-6-25-15-25
		c-11,0-15-12-15-45s-4-45-15-45c-8,0-15,7-15,15c0,11-11,15-40,15s-40,4-40,15c0,10-10,15-30,15s-30,5-30,15c0,11-12,15-45,15
		s-45,4-45,15s-12,15-45,15c-25,0-45,5-45,10c0,6-18,10-40,10c-29,0-40,4-40,15s-12,15-45,15s-45,4-45,15c0,12-14,15-70,15
		s-70,3-70,15s-15,15-75,15s-75,3-75,15c0,13-34,15-245,15s-245-2-245-15c0-8-4-15-10-15c-5,0-10-25-10-55s5-55,10-55
		c6,0,10-20,10-45c0-33,4-45,15-45s15-12,15-45s4-45,15-45c9,0,15-9,15-25s6-25,15-25c11,0,15-12,15-45s4-45,15-45c10,0,15-10,15-30
		s5-30,15-30s15-10,15-30s5-30,15-30c9,0,15-9,15-25s6-25,15-25c10,0,15-10,15-30s5-30,15-30s15-10,15-30c0-16,5-30,10-30
		c6,0,10-7,10-15s7-15,15-15c9,0,15-9,15-25s6-25,15-25c8,0,15-7,15-15s7-15,15-15c10,0,15-10,15-30s5-30,15-30c8,0,15-7,15-15
		s7-15,15-15c10,0,15-10,15-30s5-30,15-30c8,0,15-7,15-15s5-15,11-15c19,0,39-28,39-54c0-16,6-26,15-26c8,0,15-7,15-15s7-15,15-15
		s15-7,15-15s7-15,15-15s15-7,15-15s7-15,15-15s15-7,15-15s7-15,15-15s15-7,15-15s7-15,15-15s15-7,15-15s5-15,11-15
		c14,0,39-25,39-39c0-6,7-11,15-11s15-7,15-15c0-10,10-15,30-15s30-5,30-15c0-8,7-15,15-15s15-7,15-15c0-10,10-15,30-15s30-5,30-15
		c0-8,7-15,15-15s15-7,15-15c0-12,19-15,115-15s115,3,115,15c0,9,9,15,25,15s25,6,25,15c0,8,7,15,15,15s15,7,15,15s7,15,15,15
		s15,7,15,15s7,15,15,15c10,0,15,10,15,30s5,30,15,30c11,0,15,11,15,40s4,40,15,40c10,0,15,10,15,30s5,30,15,30s15-10,15-30
		s5-30,15-30c8,0,15-7,15-15c0-9,9-15,25-15s25-6,25-15c0-8,7-15,15-15s15-4,15-10c0-5,7-10,15-10s15-7,15-15c0-10,10-15,30-15
		s30-5,30-15c0-12,14-15,70-15s70,3,70,15c0,8,7,15,15,15c12,0,15,19,15,115s-3,115-15,115c-11,0-15,11-15,40s-4,40-15,40
		c-10,0-15,10-15,30s-5,30-15,30c-8,0-15,7-15,15s-4,15-10,15c-5,0-10,7-10,15s-7,15-15,15s-15,7-15,15s-7,15-15,15s-15,7-15,15
		s7,15,15,15c12,0,15,16,15,85s3,85,15,85c13,0,15,21,15,130s-2,130-15,130c-12,0-15,16-15,85s-3,85-15,85c-13,0-15,32-15,230v230
		h-30C7153,11850,7150,11847,7150,11820z"/>
	<path d="M9740,11435c0-8-7-15-15-15c-13,0-15-24-15-160s2-160,15-160c12,0,15-14,15-70v-70h-45c-33,0-45,4-45,15c0,13-27,15-185,15
		s-185-2-185-15c0-8-7-15-15-15s-15-7-15-15s-7-15-15-15c-10,0-15-10-15-30s-5-30-15-30c-12,0-15-18-15-100s3-100,15-100
		c10,0,15-10,15-30s5-30,15-30c9,0,15-9,15-25s6-25,15-25c8,0,15-7,15-15s7-15,15-15c10,0,15-10,15-30s5-30,15-30c8,0,15-7,15-15
		s7-15,15-15s15-7,15-15s7-15,15-15c9,0,15-10,15-26c0-26,20-54,39-54c6,0,11-7,11-15s7-15,15-15c10,0,15-10,15-30s5-30,15-30
		s15-10,15-30s5-30,15-30s15-10,15-30s5-30,15-30c9,0,15-9,15-25s6-25,15-25c10,0,15-10,15-30s5-30,15-30c11,0,15-12,15-45
		c0-25,5-45,10-45c6,0,10-18,10-40c0-29,4-40,15-40s15-12,15-45s4-45,15-45c12,0,15-13,15-55s3-55,15-55c10,0,15-10,15-30
		s5-30,15-30c8,0,15-7,15-15s7-15,15-15s15-7,15-15c0-10,10-15,30-15s30-5,30-15c0-9,9-15,25-15s25-6,25-15c0-11,12-15,45-15
		s45-4,45-15s12-15,45-15s45,4,45,15s11,15,40,15s40,4,40,15c0,8,7,15,15,15s15,7,15,15c0,10,10,15,30,15s30,5,30,15c0,8,7,15,15,15
		c10,0,15,10,15,30s5,30,15,30c12,0,15,19,15,115s3,115,15,115c13,0,15,24,15,155s-2,155-15,155c-12,0-15,17-15,90s-3,90-15,90
		c-11,0-15,11-15,40s-4,40-15,40c-10,0-15,10-15,30s-5,30-15,30s-15,10-15,30s-5,30-15,30c-8,0-15,7-15,15s-7,15-15,15s-15,7-15,15
		s-7,15-15,15c-9,0-15,9-15,25s-6,25-15,25c-8,0-15,7-15,15s-4,15-10,15c-5,0-10,7-10,15s-7,15-15,15s-15,7-15,15s-7,15-15,15
		s-15,7-15,15s-7,15-15,15s-15,7-15,15s-7,15-15,15s-15,7-15,15s-7,15-15,15c-11,0-15,11-15,40s-4,40-15,40c-12,0-15,15-15,75
		s-3,75-15,75s-15,16-15,85c0,50-4,85-10,85c-5,0-10,25-10,55c0,42-3,55-15,55c-10,0-15,10-15,30s-5,30-15,30c-8,0-15,7-15,15
		s-7,15-15,15s-15,7-15,15s-7,15-15,15S9740,11443,9740,11435z"/>
	<path d="M20100,10685c0-8-7-15-15-15c-11,0-15-11-15-40s-4-40-15-40c-12,0-15-17-15-90s3-90,15-90c10,0,15-10,15-30s5-30,15-30
		c8,0,15-4,15-10c0-5,7-10,15-10s15-7,15-15s7-15,15-15s15-7,15-15c0-12,14-15,70-15h70v40c0,22-4,40-10,40c-5,0-10,20-10,45
		c0,33-4,45-15,45s-15,12-15,45s-4,45-15,45c-10,0-15,10-15,30s-5,30-15,30c-9,0-15,9-15,25s-6,25-15,25c-8,0-15,7-15,15
		s-7,15-15,15s-15,7-15,15s-7,15-15,15S20100,10693,20100,10685z"/>
	<path d="M21050,10140c0-29,4-40,15-40c10,0,15-10,15-30s5-30,15-30s15-10,15-30s5-30,15-30s15-10,15-30s5-30,15-30c9,0,15-9,15-25
		s6-25,15-25c10,0,15-10,15-30c0-16,5-30,10-30c6,0,10-20,10-45c0-33,4-45,15-45c10,0,15-10,15-30s5-30,15-30c9,0,15-9,15-25
		s6-25,15-25c11,0,15-12,15-45s4-45,15-45c8,0,15-7,15-15s7-15,15-15c10,0,15-10,15-30s5-30,15-30c8,0,15-4,15-10c0-5,7-10,15-10
		s15-7,15-15s7-15,15-15s15-7,15-15s5-15,10-15c6,0,10-7,10-15s7-15,15-15s15-7,15-15s7-15,15-15s15-7,15-15s7-15,15-15s15-7,15-15
		c0-10,10-15,30-15s30-5,30-15c0-12,13-15,55-15c54,0,55,0,55,30c0,20,5,30,15,30s15,10,15,30s5,30,15,30c11,0,15,12,15,45
		s4,45,15,45c9,0,15,9,15,25s6,25,15,25c10,0,15,10,15,30s5,30,15,30c11,0,15,12,15,45s-4,45-15,45c-9,0-15,9-15,25s-6,25-15,25
		c-10,0-15,10-15,30s-5,30-15,30c-8,0-15,7-15,15s-7,15-15,15s-15,7-15,15s-7,15-15,15s-15,7-15,15s-7,15-15,15s-15,7-15,15
		s-4,15-10,15c-5,0-10,7-10,15s-7,15-15,15s-15,5-15,10c0,6-7,10-15,10s-15,7-15,15c0,10-10,15-30,15s-30,5-30,15c0,8-7,15-15,15
		s-15,7-15,15c0,10-10,15-30,15s-30,5-30,15c0,9-9,15-25,15s-25,6-25,15c0,10-10,15-30,15s-30,5-30,15s-10,15-30,15s-30,5-30,15
		s-10,15-30,15c-16,0-30,5-30,10c0,6-11,10-25,10c-16,0-25,6-25,15c0,10-10,15-30,15s-30,5-30,15c0,11-12,15-45,15h-45V10140z"/>
	<path d="M20740,9650c0-5-7-10-15-10c-12,0-15-13-15-60s3-60,15-60c10,0,15-10,15-30c0-16,5-30,10-30c6,0,10-11,10-25
		c0-16,6-25,15-25c10,0,15-10,15-30s5-30,15-30c8,0,15-7,15-15c0-13,21-15,130-15s130,2,130,15c0,8,7,15,15,15c11,0,15,11,15,40
		s-4,40-15,40c-8,0-15,7-15,15s-7,15-15,15s-15,7-15,15c0,10-10,15-30,15s-30,5-30,15c0,8-4,15-10,15c-5,0-10,7-10,15s-7,15-15,15
		s-15,7-15,15c0,10-10,15-30,15s-30,5-30,15c0,8-7,15-15,15s-15,7-15,15c0,10-10,15-30,15c-16,0-30,5-30,10c0,6-11,10-25,10
		S20740,9656,20740,9650z"/>
</g>
</svg>
